solid CATIA STL
  facet normal  2.935041e-003  8.379708e-001  5.457073e-001
    outer loop
      vertex  0.000000e+000  2.368790e+000  1.840878e+000
      vertex  5.217307e-001  2.649944e+000  1.406342e+000
      vertex -4.338943e-001  2.634058e+000  1.435875e+000
    endloop
  endfacet
  facet normal -4.756210e-002  8.940873e-001  4.453602e-001
    outer loop
      vertex -7.000000e+000  3.000000e+000 -7.347638e-016
      vertex -4.338943e-001  2.634058e+000  1.435875e+000
      vertex -1.208054e+000  2.865204e+000  8.891598e-001
    endloop
  endfacet
  facet normal -1.402808e-002  9.218417e-001 -3.873124e-001
    outer loop
      vertex -7.000000e+000  2.368790e+000 -1.840878e+000
      vertex -1.259282e+000  2.887177e+000 -8.149901e-001
      vertex -5.217307e-001  2.649944e+000 -1.406342e+000
    endloop
  endfacet
  facet normal  0.000000e+000  9.905535e-001  1.371271e-001
    outer loop
      vertex  1.500000e+000  3.000000e+000  1.836910e-016
      vertex  1.259282e+000  2.887177e+000  8.149901e-001
      vertex  7.000000e+000  3.000000e+000 -7.347638e-016
    endloop
  endfacet
  facet normal  1.113500e-002  2.041115e-001 -9.788843e-001
    outer loop
      vertex -1.587713e+000  1.198958e+000 -2.750000e+000
      vertex -1.587713e+000  0.000000e+000 -3.000000e+000
      vertex -7.000000e+000  7.407784e-001 -2.907103e+000
    endloop
  endfacet
  facet normal -2.209294e-002  5.477473e-001 -8.363521e-001
    outer loop
      vertex -1.587713e+000  1.198958e+000 -2.750000e+000
      vertex -7.000000e+000  7.407784e-001 -2.907103e+000
      vertex -7.000000e+000  2.368790e+000 -1.840878e+000
    endloop
  endfacet
  facet normal -1.656530e-001  0.000000e+000 -9.861842e-001
    outer loop
      vertex -1.587713e+000  1.198958e+000 -2.750000e+000
      vertex -7.000000e+000  2.368790e+000 -1.840878e+000
      vertex -1.587713e+000  1.201042e+000 -2.750000e+000
    endloop
  endfacet
  facet normal  1.656530e-001  0.000000e+000 -9.861841e-001
    outer loop
      vertex  1.587713e+000  1.198958e+000 -2.750000e+000
      vertex  1.587713e+000  1.200868e+000 -2.750000e+000
      vertex  7.000000e+000  2.368790e+000 -1.840878e+000
    endloop
  endfacet
  facet normal  2.209294e-002  5.477473e-001 -8.363521e-001
    outer loop
      vertex  1.587713e+000  1.198958e+000 -2.750000e+000
      vertex  7.000000e+000  2.368790e+000 -1.840878e+000
      vertex  7.000000e+000  7.407784e-001 -2.907103e+000
    endloop
  endfacet
  facet normal -1.113500e-002  2.041115e-001 -9.788843e-001
    outer loop
      vertex  1.587713e+000  1.198958e+000 -2.750000e+000
      vertex  7.000000e+000  7.407784e-001 -2.907103e+000
      vertex  1.587713e+000  4.440892e-016 -3.000000e+000
    endloop
  endfacet
  facet normal -2.901485e-002  0.000000e+000  9.995790e-001
    outer loop
      vertex  1.587713e+000  1.201042e+000  2.750000e+000
      vertex  1.587713e+000  1.198958e+000  2.750000e+000
      vertex  7.000000e+000  7.407784e-001  2.907103e+000
    endloop
  endfacet
  facet normal  2.230377e-002  5.477448e-001  8.363481e-001
    outer loop
      vertex  1.587713e+000  1.201042e+000  2.750000e+000
      vertex  7.000000e+000  7.407784e-001  2.907103e+000
      vertex  7.000000e+000  2.368790e+000  1.840878e+000
    endloop
  endfacet
  facet normal  0.000000e+000  6.143082e-001  7.890661e-001
    outer loop
      vertex  1.587713e+000  1.201042e+000  2.750000e+000
      vertex  7.000000e+000  2.368790e+000  1.840878e+000
      vertex  0.000000e+000  2.368790e+000  1.840878e+000
    endloop
  endfacet
  facet normal -3.369182e-005  6.142797e-001  7.890884e-001
    outer loop
      vertex  1.587713e+000  1.201042e+000  2.750000e+000
      vertex  0.000000e+000  2.368790e+000  1.840878e+000
      vertex -1.587713e+000  1.200868e+000  2.750000e+000
    endloop
  endfacet
  facet normal  0.000000e+000  6.142511e-001 -7.891106e-001
    outer loop
      vertex  7.000000e+000  2.368790e+000 -1.840878e+000
      vertex  1.587713e+000  1.200868e+000 -2.750000e+000
      vertex  0.000000e+000  2.368790e+000 -1.840878e+000
    endloop
  endfacet
  facet normal  0.000000e+000  8.365360e-001 -5.479120e-001
    outer loop
      vertex  7.000000e+000  2.368790e+000 -1.840878e+000
      vertex  0.000000e+000  2.368790e+000 -1.840878e+000
      vertex  4.338943e-001  2.634058e+000 -1.435875e+000
    endloop
  endfacet
  facet normal  1.204845e-002  9.147621e-001 -4.038133e-001
    outer loop
      vertex  7.000000e+000  2.368790e+000 -1.840878e+000
      vertex  4.338943e-001  2.634058e+000 -1.435875e+000
      vertex  1.208054e+000  2.865204e+000 -8.891598e-001
    endloop
  endfacet
  facet normal  5.677228e-002  9.841779e-001 -1.678411e-001
    outer loop
      vertex  7.000000e+000  2.368790e+000 -1.840878e+000
      vertex  1.208054e+000  2.865204e+000 -8.891598e-001
      vertex  1.500000e+000  3.000000e+000  1.836910e-016
    endloop
  endfacet
  facet normal -5.416345e-017  9.459379e-001 -3.243480e-001
    outer loop
      vertex  7.000000e+000  2.368790e+000 -1.840878e+000
      vertex  1.500000e+000  3.000000e+000  1.836910e-016
      vertex  7.000000e+000  3.000000e+000 -7.347638e-016
    endloop
  endfacet
  facet normal -8.985043e-002  7.863043e-001  6.112712e-001
    outer loop
      vertex -4.338943e-001  2.634058e+000  1.435875e+000
      vertex -7.000000e+000  3.000000e+000 -7.347638e-016
      vertex  0.000000e+000  2.368790e+000  1.840878e+000
    endloop
  endfacet
  facet normal  0.000000e+000  9.459379e-001  3.243480e-001
    outer loop
      vertex  0.000000e+000  2.368790e+000  1.840878e+000
      vertex -7.000000e+000  3.000000e+000 -7.347638e-016
      vertex -7.000000e+000  2.368790e+000  1.840878e+000
    endloop
  endfacet
  facet normal  -0.000000e+000  6.142511e-001  7.891106e-001
    outer loop
      vertex  0.000000e+000  2.368790e+000  1.840878e+000
      vertex -7.000000e+000  2.368790e+000  1.840878e+000
      vertex -1.587713e+000  1.200868e+000  2.750000e+000
    endloop
  endfacet
  facet normal -2.228616e-002  5.477450e-001  8.363485e-001
    outer loop
      vertex -1.587713e+000  1.200868e+000  2.750000e+000
      vertex -7.000000e+000  2.368790e+000  1.840878e+000
      vertex -7.000000e+000  7.407784e-001  2.907103e+000
    endloop
  endfacet
  facet normal  2.901485e-002  0.000000e+000  9.995789e-001
    outer loop
      vertex -1.587713e+000  1.200868e+000  2.750000e+000
      vertex -7.000000e+000  7.407784e-001  2.907103e+000
      vertex -1.587713e+000  1.198958e+000  2.750000e+000
    endloop
  endfacet
  facet normal -1.968780e-003  8.527154e-001 -5.223719e-001
    outer loop
      vertex -5.217307e-001  2.649944e+000 -1.406342e+000
      vertex  4.338943e-001  2.634058e+000 -1.435875e+000
      vertex -7.000000e+000  2.368790e+000 -1.840878e+000
    endloop
  endfacet
  facet normal  0.000000e+000  8.365360e-001 -5.479120e-001
    outer loop
      vertex -7.000000e+000  2.368790e+000 -1.840878e+000
      vertex  4.338943e-001  2.634058e+000 -1.435875e+000
      vertex  0.000000e+000  2.368790e+000 -1.840878e+000
    endloop
  endfacet
  facet normal  0.000000e+000  6.143082e-001 -7.890661e-001
    outer loop
      vertex -7.000000e+000  2.368790e+000 -1.840878e+000
      vertex  0.000000e+000  2.368790e+000 -1.840878e+000
      vertex -1.587713e+000  1.201042e+000 -2.750000e+000
    endloop
  endfacet
  facet normal  3.369182e-005  6.142797e-001 -7.890884e-001
    outer loop
      vertex -1.587713e+000  1.201042e+000 -2.750000e+000
      vertex  0.000000e+000  2.368790e+000 -1.840878e+000
      vertex  1.587713e+000  1.200868e+000 -2.750000e+000
    endloop
  endfacet
  facet normal  0.000000e+000 -8.072750e-002  9.967362e-001
    outer loop
      vertex -7.000000e+000 -1.198958e+000  2.750000e+000
      vertex -1.587713e+000 -1.198958e+000  2.750000e+000
      vertex -7.000000e+000  7.407784e-001  2.907103e+000
    endloop
  endfacet
  facet normal -4.469644e-002 -2.039201e-001  9.779666e-001
    outer loop
      vertex -7.000000e+000  7.407784e-001  2.907103e+000
      vertex -1.587713e+000 -1.198958e+000  2.750000e+000
      vertex -1.587713e+000 -1.554312e-015  3.000000e+000
    endloop
  endfacet
  facet normal  1.113500e-002  2.041115e-001  9.788843e-001
    outer loop
      vertex -7.000000e+000  7.407784e-001  2.907103e+000
      vertex -1.587713e+000 -1.554312e-015  3.000000e+000
      vertex -1.587713e+000  1.198958e+000  2.750000e+000
    endloop
  endfacet
  facet normal -6.140608e-002  9.860604e-001 -1.546422e-001
    outer loop
      vertex -1.259282e+000  2.887177e+000 -8.149901e-001
      vertex -7.000000e+000  2.368790e+000 -1.840878e+000
      vertex -1.500000e+000  3.000000e+000  0.000000e+000
    endloop
  endfacet
  facet normal  4.333076e-017  9.459379e-001 -3.243480e-001
    outer loop
      vertex -1.500000e+000  3.000000e+000  0.000000e+000
      vertex -7.000000e+000  2.368790e+000 -1.840878e+000
      vertex -7.000000e+000  3.000000e+000 -7.347638e-016
    endloop
  endfacet
  facet normal -2.002386e-017  9.887032e-001  1.498866e-001
    outer loop
      vertex -1.500000e+000  3.000000e+000  0.000000e+000
      vertex -7.000000e+000  3.000000e+000 -7.347638e-016
      vertex -1.208054e+000  2.865204e+000  8.891598e-001
    endloop
  endfacet
  facet normal  0.000000e+000 -2.041241e-001 -9.789450e-001
    outer loop
      vertex -1.587713e+000 -1.198958e+000 -2.750000e+000
      vertex -7.000000e+000 -1.198958e+000 -2.750000e+000
      vertex -1.587713e+000  0.000000e+000 -3.000000e+000
    endloop
  endfacet
  facet normal -2.814611e-002 -8.069552e-002 -9.963413e-001
    outer loop
      vertex -1.587713e+000  0.000000e+000 -3.000000e+000
      vertex -7.000000e+000 -1.198958e+000 -2.750000e+000
      vertex -7.000000e+000  7.407784e-001 -2.907103e+000
    endloop
  endfacet
  facet normal  0.000000e+000 -2.041241e-001  9.789450e-001
    outer loop
      vertex  1.587713e+000 -1.198958e+000  2.750000e+000
      vertex  7.000000e+000 -1.198958e+000  2.750000e+000
      vertex  1.587713e+000 -5.773160e-015  3.000000e+000
    endloop
  endfacet
  facet normal  2.814611e-002 -8.069552e-002  9.963413e-001
    outer loop
      vertex  1.587713e+000 -5.773160e-015  3.000000e+000
      vertex  7.000000e+000 -1.198958e+000  2.750000e+000
      vertex  7.000000e+000  7.407784e-001  2.907103e+000
    endloop
  endfacet
  facet normal -1.113500e-002  2.041115e-001  9.788843e-001
    outer loop
      vertex  1.587713e+000 -5.773160e-015  3.000000e+000
      vertex  7.000000e+000  7.407784e-001  2.907103e+000
      vertex  1.587713e+000  1.198958e+000  2.750000e+000
    endloop
  endfacet
  facet normal  0.000000e+000  8.395852e-001  5.432280e-001
    outer loop
      vertex  0.000000e+000  2.368790e+000  1.840878e+000
      vertex  7.000000e+000  2.368790e+000  1.840878e+000
      vertex  5.217307e-001  2.649944e+000  1.406342e+000
    endloop
  endfacet
  facet normal  1.929365e-002  9.457618e-001  3.242876e-001
    outer loop
      vertex  5.217307e-001  2.649944e+000  1.406342e+000
      vertex  7.000000e+000  2.368790e+000  1.840878e+000
      vertex  7.000000e+000  3.000000e+000 -7.347638e-016
    endloop
  endfacet
  facet normal  4.117851e-002  9.085109e-001  4.158273e-001
    outer loop
      vertex  5.217307e-001  2.649944e+000  1.406342e+000
      vertex  7.000000e+000  3.000000e+000 -7.347638e-016
      vertex  1.259282e+000  2.887177e+000  8.149901e-001
    endloop
  endfacet
  facet normal  0.000000e+000 -2.041241e-001 -9.789450e-001
    outer loop
      vertex  1.587713e+000 -1.198958e+000 -2.750000e+000
      vertex  1.587713e+000  4.440892e-016 -3.000000e+000
      vertex  7.000000e+000 -1.198958e+000 -2.750000e+000
    endloop
  endfacet
  facet normal  2.814611e-002 -8.069552e-002 -9.963413e-001
    outer loop
      vertex  7.000000e+000 -1.198958e+000 -2.750000e+000
      vertex  1.587713e+000  4.440892e-016 -3.000000e+000
      vertex  7.000000e+000  7.407784e-001 -2.907103e+000
    endloop
  endfacet
  facet normal -5.484768e-005 -1.000000e+000  6.966591e-005
    outer loop
      vertex -1.587713e+000  1.201042e+000 -2.750000e+000
      vertex  1.587713e+000  1.200868e+000 -2.750000e+000
      vertex -3.865587e-016  1.201042e+000 -1.500000e+000
    endloop
  endfacet
  facet normal  -0.000000e+000 -1.000000e+000  0.000000e+000
    outer loop
      vertex -1.587713e+000  1.201042e+000 -2.750000e+000
      vertex -3.865587e-016  1.201042e+000 -1.500000e+000
      vertex -1.060660e+000  1.201042e+000 -1.060660e+000
    endloop
  endfacet
  facet normal  -0.000000e+000 -1.000000e+000  0.000000e+000
    outer loop
      vertex -1.587713e+000  1.201042e+000 -2.750000e+000
      vertex -1.060660e+000  1.201042e+000 -1.060660e+000
      vertex -1.500000e+000  1.201042e+000  0.000000e+000
    endloop
  endfacet
  facet normal  -0.000000e+000 -1.000000e+000  0.000000e+000
    outer loop
      vertex -1.587713e+000  1.201042e+000 -2.750000e+000
      vertex -1.500000e+000  1.201042e+000  0.000000e+000
      vertex -3.175426e+000  1.201042e+000  8.881784e-016
    endloop
  endfacet
  facet normal -3.357395e-020 -1.000000e+000 -6.333264e-005
    outer loop
      vertex -3.175426e+000  1.201042e+000  8.881784e-016
      vertex -1.500000e+000  1.201042e+000  0.000000e+000
      vertex -1.587713e+000  1.200868e+000  2.750000e+000
    endloop
  endfacet
  facet normal  1.419666e-004 -1.000000e+000 -5.880451e-005
    outer loop
      vertex -1.587713e+000  1.200868e+000  2.750000e+000
      vertex -1.500000e+000  1.201042e+000  0.000000e+000
      vertex -1.060660e+000  1.201042e+000  1.060660e+000
    endloop
  endfacet
  facet normal  5.484767e-005 -1.000000e+000 -8.598455e-005
    outer loop
      vertex -1.587713e+000  1.200868e+000  2.750000e+000
      vertex -1.060660e+000  1.201042e+000  1.060660e+000
      vertex  1.587713e+000  1.201042e+000  2.750000e+000
    endloop
  endfacet
  facet normal  0.000000e+000 -1.000000e+000  0.000000e+000
    outer loop
      vertex  1.587713e+000  1.201042e+000  2.750000e+000
      vertex -1.060660e+000  1.201042e+000  1.060660e+000
      vertex  1.091046e-015  1.201042e+000  1.500000e+000
    endloop
  endfacet
  facet normal  0.000000e+000 -1.000000e+000  0.000000e+000
    outer loop
      vertex  1.587713e+000  1.201042e+000  2.750000e+000
      vertex  1.091046e-015  1.201042e+000  1.500000e+000
      vertex  1.060660e+000  1.201042e+000  1.060660e+000
    endloop
  endfacet
  facet normal  0.000000e+000 -1.000000e+000  0.000000e+000
    outer loop
      vertex  1.587713e+000  1.201042e+000  2.750000e+000
      vertex  1.060660e+000  1.201042e+000  1.060660e+000
      vertex  3.175426e+000  1.201042e+000 -1.332268e-015
    endloop
  endfacet
  facet normal  0.000000e+000 -9.999999e-001  0.000000e+000
    outer loop
      vertex  3.175426e+000  1.201042e+000 -1.332268e-015
      vertex  1.060660e+000  1.201042e+000  1.060660e+000
      vertex  1.500000e+000  1.201042e+000  1.836910e-016
    endloop
  endfacet
  facet normal  5.730462e-020 -1.000000e+000  6.333264e-005
    outer loop
      vertex  3.175426e+000  1.201042e+000 -1.332268e-015
      vertex  1.500000e+000  1.201042e+000  1.836910e-016
      vertex  1.587713e+000  1.200868e+000 -2.750000e+000
    endloop
  endfacet
  facet normal -1.419666e-004 -1.000000e+000  5.880451e-005
    outer loop
      vertex  1.587713e+000  1.200868e+000 -2.750000e+000
      vertex  1.500000e+000  1.201042e+000  1.836910e-016
      vertex  1.060660e+000  1.201042e+000 -1.060660e+000
    endloop
  endfacet
  facet normal -3.781686e-005 -1.000000e+000  9.129794e-005
    outer loop
      vertex  1.587713e+000  1.200868e+000 -2.750000e+000
      vertex  1.060660e+000  1.201042e+000 -1.060660e+000
      vertex -3.865587e-016  1.201042e+000 -1.500000e+000
    endloop
  endfacet
  facet normal -3.815223e-001  7.784209e-002 -9.210762e-001
    outer loop
      vertex  1.091046e-015  1.201042e+000  1.500000e+000
      vertex  5.217307e-001  2.649944e+000  1.406342e+000
      vertex  1.060660e+000  1.201042e+000  1.060660e+000
    endloop
  endfacet
  facet normal -2.995243e-002 -5.373292e-002 -9.981061e-001
    outer loop
      vertex  1.091046e-015  1.201042e+000  1.500000e+000
      vertex -4.338943e-001  2.634058e+000  1.435875e+000
      vertex  5.217307e-001  2.649944e+000  1.406342e+000
    endloop
  endfacet
  facet normal  3.816251e-001  7.432202e-002 -9.213243e-001
    outer loop
      vertex -4.338943e-001  2.634058e+000  1.435875e+000
      vertex  1.091046e-015  1.201042e+000  1.500000e+000
      vertex -1.060660e+000  1.201042e+000  1.060660e+000
    endloop
  endfacet
  facet normal -6.167585e-001 -4.187341e-002 -7.860379e-001
    outer loop
      vertex  5.217307e-001  2.649944e+000  1.406342e+000
      vertex  1.259282e+000  2.887177e+000  8.149901e-001
      vertex  1.060660e+000  1.201042e+000  1.060660e+000
    endloop
  endfacet
  facet normal -9.591766e-001  7.318682e-002 -2.731738e-001
    outer loop
      vertex  1.060660e+000  1.201042e+000  1.060660e+000
      vertex  1.259282e+000  2.887177e+000  8.149901e-001
      vertex  1.500000e+000  3.000000e+000  1.836910e-016
    endloop
  endfacet
  facet normal -9.238795e-001  -0.000000e+000 -3.826835e-001
    outer loop
      vertex  1.060660e+000  1.201042e+000  1.060660e+000
      vertex  1.500000e+000  3.000000e+000  1.836910e-016
      vertex  1.500000e+000  1.201042e+000  1.836910e-016
    endloop
  endfacet
  facet normal  5.696953e-001 -3.416557e-002 -8.211456e-001
    outer loop
      vertex -4.338943e-001  2.634058e+000  1.435875e+000
      vertex -1.060660e+000  1.201042e+000  1.060660e+000
      vertex -1.208054e+000  2.865204e+000  8.891598e-001
    endloop
  endfacet
  facet normal  9.230505e-001  4.235208e-002 -3.823401e-001
    outer loop
      vertex -1.208054e+000  2.865204e+000  8.891598e-001
      vertex -1.060660e+000  1.201042e+000  1.060660e+000
      vertex -1.500000e+000  1.201042e+000  0.000000e+000
    endloop
  endfacet
  facet normal  9.500973e-001  0.000000e+000 -3.119540e-001
    outer loop
      vertex -1.208054e+000  2.865204e+000  8.891598e-001
      vertex -1.500000e+000  1.201042e+000  0.000000e+000
      vertex -1.500000e+000  3.000000e+000  0.000000e+000
    endloop
  endfacet
  facet normal  3.815223e-001  7.784209e-002  9.210762e-001
    outer loop
      vertex -3.865587e-016  1.201042e+000 -1.500000e+000
      vertex -5.217307e-001  2.649944e+000 -1.406342e+000
      vertex -1.060660e+000  1.201042e+000 -1.060660e+000
    endloop
  endfacet
  facet normal  2.995243e-002 -5.373292e-002  9.981061e-001
    outer loop
      vertex -3.865587e-016  1.201042e+000 -1.500000e+000
      vertex  4.338943e-001  2.634058e+000 -1.435875e+000
      vertex -5.217307e-001  2.649944e+000 -1.406342e+000
    endloop
  endfacet
  facet normal -3.816251e-001  7.432202e-002  9.213243e-001
    outer loop
      vertex  4.338943e-001  2.634058e+000 -1.435875e+000
      vertex -3.865587e-016  1.201042e+000 -1.500000e+000
      vertex  1.060660e+000  1.201042e+000 -1.060660e+000
    endloop
  endfacet
  facet normal  6.167585e-001 -4.187341e-002  7.860379e-001
    outer loop
      vertex -5.217307e-001  2.649944e+000 -1.406342e+000
      vertex -1.259282e+000  2.887177e+000 -8.149901e-001
      vertex -1.060660e+000  1.201042e+000 -1.060660e+000
    endloop
  endfacet
  facet normal  9.591766e-001  7.318682e-002  2.731738e-001
    outer loop
      vertex -1.060660e+000  1.201042e+000 -1.060660e+000
      vertex -1.259282e+000  2.887177e+000 -8.149901e-001
      vertex -1.500000e+000  3.000000e+000  0.000000e+000
    endloop
  endfacet
  facet normal  9.238795e-001  0.000000e+000  3.826835e-001
    outer loop
      vertex -1.060660e+000  1.201042e+000 -1.060660e+000
      vertex -1.500000e+000  3.000000e+000  0.000000e+000
      vertex -1.500000e+000  1.201042e+000  0.000000e+000
    endloop
  endfacet
  facet normal -5.696953e-001 -3.416557e-002  8.211456e-001
    outer loop
      vertex  4.338943e-001  2.634058e+000 -1.435875e+000
      vertex  1.060660e+000  1.201042e+000 -1.060660e+000
      vertex  1.208054e+000  2.865204e+000 -8.891598e-001
    endloop
  endfacet
  facet normal -9.230505e-001  4.235208e-002  3.823401e-001
    outer loop
      vertex  1.208054e+000  2.865204e+000 -8.891598e-001
      vertex  1.060660e+000  1.201042e+000 -1.060660e+000
      vertex  1.500000e+000  1.201042e+000  1.836910e-016
    endloop
  endfacet
  facet normal -9.500973e-001  0.000000e+000  3.119540e-001
    outer loop
      vertex  1.208054e+000  2.865204e+000 -8.891598e-001
      vertex  1.500000e+000  1.201042e+000  1.836910e-016
      vertex  1.500000e+000  3.000000e+000  1.836910e-016
    endloop
  endfacet
  facet normal  1.000000e+000  -0.000000e+000  0.000000e+000
    outer loop
      vertex -1.587713e+000  1.198958e+000 -2.750000e+000
      vertex -1.587713e+000 -1.345480e-006 -2.750000e+000
      vertex -1.587713e+000  0.000000e+000 -3.000000e+000
    endloop
  endfacet
  facet normal  1.000000e+000  0.000000e+000  0.000000e+000
    outer loop
      vertex -1.587713e+000 -1.198958e+000 -2.750000e+000
      vertex -1.587713e+000  0.000000e+000 -3.000000e+000
      vertex -1.587713e+000 -1.345480e-006 -2.750000e+000
    endloop
  endfacet
  facet normal -1.000000e+000  0.000000e+000  0.000000e+000
    outer loop
      vertex  1.587713e+000  1.198958e+000 -2.750000e+000
      vertex  1.587713e+000  4.440892e-016 -3.000000e+000
      vertex  1.587713e+000 -4.440892e-016 -2.750000e+000
    endloop
  endfacet
  facet normal -1.000000e+000  -0.000000e+000  -0.000000e+000
    outer loop
      vertex  1.587713e+000 -1.198958e+000 -2.750000e+000
      vertex  1.587713e+000 -4.440892e-016 -2.750000e+000
      vertex  1.587713e+000  4.440892e-016 -3.000000e+000
    endloop
  endfacet
  facet normal -1.000000e+000  0.000000e+000  0.000000e+000
    outer loop
      vertex  1.587713e+000  1.198958e+000  2.750000e+000
      vertex  1.587713e+000 -4.440892e-016  2.750000e+000
      vertex  1.587713e+000 -5.773160e-015  3.000000e+000
    endloop
  endfacet
  facet normal -1.000000e+000  0.000000e+000  -0.000000e+000
    outer loop
      vertex  1.587713e+000 -1.198958e+000  2.750000e+000
      vertex  1.587713e+000 -5.773160e-015  3.000000e+000
      vertex  1.587713e+000 -4.440892e-016  2.750000e+000
    endloop
  endfacet
  facet normal  1.000000e+000  0.000000e+000  0.000000e+000
    outer loop
      vertex -1.587713e+000  1.198958e+000  2.750000e+000
      vertex -1.587713e+000 -1.554312e-015  3.000000e+000
      vertex -1.587713e+000 -4.440892e-016  2.750000e+000
    endloop
  endfacet
  facet normal  1.000000e+000  0.000000e+000  0.000000e+000
    outer loop
      vertex -1.587713e+000 -1.198958e+000  2.750000e+000
      vertex -1.587713e+000 -4.440892e-016  2.750000e+000
      vertex -1.587713e+000 -1.554312e-015  3.000000e+000
    endloop
  endfacet
  facet normal -8.660254e-001 -9.251858e-017 -5.000000e-001
    outer loop
      vertex  3.175426e+000  1.201042e+000 -1.332268e-015
      vertex  3.175426e+000 -1.198958e+000 -8.881784e-016
      vertex  1.587713e+000 -1.198958e+000  2.750000e+000
    endloop
  endfacet
  facet normal -8.660254e-001  0.000000e+000 -5.000000e-001
    outer loop
      vertex  3.175426e+000  1.201042e+000 -1.332268e-015
      vertex  1.587713e+000 -1.198958e+000  2.750000e+000
      vertex  1.587713e+000 -4.440892e-016  2.750000e+000
    endloop
  endfacet
  facet normal -8.660254e-001  0.000000e+000 -5.000000e-001
    outer loop
      vertex  3.175426e+000  1.201042e+000 -1.332268e-015
      vertex  1.587713e+000 -4.440892e-016  2.750000e+000
      vertex  1.587713e+000  1.198958e+000  2.750000e+000
    endloop
  endfacet
  facet normal -8.660254e-001  0.000000e+000 -5.000000e-001
    outer loop
      vertex  3.175426e+000  1.201042e+000 -1.332268e-015
      vertex  1.587713e+000  1.198958e+000  2.750000e+000
      vertex  1.587713e+000  1.201042e+000  2.750000e+000
    endloop
  endfacet
  facet normal -8.660254e-001  9.251858e-017  5.000000e-001
    outer loop
      vertex  3.175426e+000 -1.198958e+000 -8.881784e-016
      vertex  3.175426e+000  1.201042e+000 -1.332268e-015
      vertex  1.587713e+000  1.200868e+000 -2.750000e+000
    endloop
  endfacet
  facet normal -8.660254e-001  0.000000e+000  5.000000e-001
    outer loop
      vertex  3.175426e+000 -1.198958e+000 -8.881784e-016
      vertex  1.587713e+000  1.200868e+000 -2.750000e+000
      vertex  1.587713e+000  1.198958e+000 -2.750000e+000
    endloop
  endfacet
  facet normal -8.660254e-001  0.000000e+000  5.000000e-001
    outer loop
      vertex  3.175426e+000 -1.198958e+000 -8.881784e-016
      vertex  1.587713e+000  1.198958e+000 -2.750000e+000
      vertex  1.587713e+000 -4.440892e-016 -2.750000e+000
    endloop
  endfacet
  facet normal -8.660254e-001  0.000000e+000  5.000000e-001
    outer loop
      vertex  3.175426e+000 -1.198958e+000 -8.881784e-016
      vertex  1.587713e+000 -4.440892e-016 -2.750000e+000
      vertex  1.587713e+000 -1.198958e+000 -2.750000e+000
    endloop
  endfacet
  facet normal  8.660254e-001  -0.000000e+000  5.000000e-001
    outer loop
      vertex -3.175426e+000  1.201042e+000  8.881784e-016
      vertex -3.175426e+000 -1.198958e+000  8.881784e-016
      vertex -1.587713e+000 -1.198958e+000 -2.750000e+000
    endloop
  endfacet
  facet normal  8.660254e-001  -0.000000e+000  5.000000e-001
    outer loop
      vertex -3.175426e+000  1.201042e+000  8.881784e-016
      vertex -1.587713e+000 -1.198958e+000 -2.750000e+000
      vertex -1.587713e+000 -1.345480e-006 -2.750000e+000
    endloop
  endfacet
  facet normal  8.660254e-001  -0.000000e+000  5.000000e-001
    outer loop
      vertex -3.175426e+000  1.201042e+000  8.881784e-016
      vertex -1.587713e+000 -1.345480e-006 -2.750000e+000
      vertex -1.587713e+000  1.198958e+000 -2.750000e+000
    endloop
  endfacet
  facet normal  8.660254e-001  -0.000000e+000  5.000000e-001
    outer loop
      vertex -3.175426e+000  1.201042e+000  8.881784e-016
      vertex -1.587713e+000  1.198958e+000 -2.750000e+000
      vertex -1.587713e+000  1.201042e+000 -2.750000e+000
    endloop
  endfacet
  facet normal  8.660254e-001  0.000000e+000 -5.000000e-001
    outer loop
      vertex -3.175426e+000 -1.198958e+000  8.881784e-016
      vertex -3.175426e+000  1.201042e+000  8.881784e-016
      vertex -1.587713e+000  1.200868e+000  2.750000e+000
    endloop
  endfacet
  facet normal  8.660254e-001  0.000000e+000 -5.000000e-001
    outer loop
      vertex -3.175426e+000 -1.198958e+000  8.881784e-016
      vertex -1.587713e+000  1.200868e+000  2.750000e+000
      vertex -1.587713e+000  1.198958e+000  2.750000e+000
    endloop
  endfacet
  facet normal  8.660254e-001  0.000000e+000 -5.000000e-001
    outer loop
      vertex -3.175426e+000 -1.198958e+000  8.881784e-016
      vertex -1.587713e+000  1.198958e+000  2.750000e+000
      vertex -1.587713e+000 -4.440892e-016  2.750000e+000
    endloop
  endfacet
  facet normal  8.660254e-001  0.000000e+000 -5.000000e-001
    outer loop
      vertex -3.175426e+000 -1.198958e+000  8.881784e-016
      vertex -1.587713e+000 -4.440892e-016  2.750000e+000
      vertex -1.587713e+000 -1.198958e+000  2.750000e+000
    endloop
  endfacet
  facet normal  0.000000e+000 -9.999999e-001  0.000000e+000
    outer loop
      vertex  7.000000e+000 -1.198958e+000  2.750000e+000
      vertex  1.587713e+000 -1.198958e+000  2.750000e+000
      vertex  7.000000e+000 -1.198958e+000 -2.750000e+000
    endloop
  endfacet
  facet normal  0.000000e+000 -1.000000e+000  0.000000e+000
    outer loop
      vertex  7.000000e+000 -1.198958e+000 -2.750000e+000
      vertex  1.587713e+000 -1.198958e+000  2.750000e+000
      vertex  3.175426e+000 -1.198958e+000 -8.881784e-016
    endloop
  endfacet
  facet normal  0.000000e+000 -9.999999e-001  -0.000000e+000
    outer loop
      vertex  7.000000e+000 -1.198958e+000 -2.750000e+000
      vertex  3.175426e+000 -1.198958e+000 -8.881784e-016
      vertex  1.587713e+000 -1.198958e+000 -2.750000e+000
    endloop
  endfacet
  facet normal  0.000000e+000 -9.999999e-001  0.000000e+000
    outer loop
      vertex -7.000000e+000 -1.198958e+000 -2.750000e+000
      vertex -1.587713e+000 -1.198958e+000 -2.750000e+000
      vertex -7.000000e+000 -1.198958e+000  2.750000e+000
    endloop
  endfacet
  facet normal  0.000000e+000 -1.000000e+000  0.000000e+000
    outer loop
      vertex -7.000000e+000 -1.198958e+000  2.750000e+000
      vertex -1.587713e+000 -1.198958e+000 -2.750000e+000
      vertex -3.175426e+000 -1.198958e+000  8.881784e-016
    endloop
  endfacet
  facet normal  0.000000e+000 -9.999999e-001  0.000000e+000
    outer loop
      vertex -7.000000e+000 -1.198958e+000  2.750000e+000
      vertex -3.175426e+000 -1.198958e+000  8.881784e-016
      vertex -1.587713e+000 -1.198958e+000  2.750000e+000
    endloop
  endfacet
  facet normal  1.000000e+000  -0.000000e+000  0.000000e+000
    outer loop
      vertex  7.000000e+000  7.407784e-001  2.907103e+000
      vertex  7.000000e+000 -1.198958e+000  2.750000e+000
      vertex  7.000000e+000  2.368790e+000  1.840878e+000
    endloop
  endfacet
  facet normal  1.000000e+000  0.000000e+000  0.000000e+000
    outer loop
      vertex  7.000000e+000  2.368790e+000  1.840878e+000
      vertex  7.000000e+000 -1.198958e+000  2.750000e+000
      vertex  7.000000e+000 -1.198958e+000 -2.220446e-016
    endloop
  endfacet
  facet normal  1.000000e+000  -0.000000e+000  0.000000e+000
    outer loop
      vertex  7.000000e+000  2.368790e+000  1.840878e+000
      vertex  7.000000e+000 -1.198958e+000 -2.220446e-016
      vertex  7.000000e+000  3.000000e+000 -7.347638e-016
    endloop
  endfacet
  facet normal  1.000000e+000  0.000000e+000  0.000000e+000
    outer loop
      vertex  7.000000e+000  3.000000e+000 -7.347638e-016
      vertex  7.000000e+000 -1.198958e+000 -2.220446e-016
      vertex  7.000000e+000  2.368790e+000 -1.840878e+000
    endloop
  endfacet
  facet normal  1.000000e+000  0.000000e+000  0.000000e+000
    outer loop
      vertex  7.000000e+000  2.368790e+000 -1.840878e+000
      vertex  7.000000e+000 -1.198958e+000 -2.220446e-016
      vertex  7.000000e+000 -1.198958e+000 -2.750000e+000
    endloop
  endfacet
  facet normal  1.000000e+000  -0.000000e+000  0.000000e+000
    outer loop
      vertex  7.000000e+000  2.368790e+000 -1.840878e+000
      vertex  7.000000e+000 -1.198958e+000 -2.750000e+000
      vertex  7.000000e+000  7.407784e-001 -2.907103e+000
    endloop
  endfacet
  facet normal -1.000000e+000  0.000000e+000  0.000000e+000
    outer loop
      vertex -7.000000e+000  3.000000e+000 -7.347638e-016
      vertex -7.000000e+000 -1.198958e+000 -2.220446e-016
      vertex -7.000000e+000  2.368790e+000  1.840878e+000
    endloop
  endfacet
  facet normal -1.000000e+000  -0.000000e+000  0.000000e+000
    outer loop
      vertex -7.000000e+000  2.368790e+000  1.840878e+000
      vertex -7.000000e+000 -1.198958e+000 -2.220446e-016
      vertex -7.000000e+000 -1.198958e+000  2.750000e+000
    endloop
  endfacet
  facet normal -1.000000e+000  0.000000e+000  0.000000e+000
    outer loop
      vertex -7.000000e+000  2.368790e+000  1.840878e+000
      vertex -7.000000e+000 -1.198958e+000  2.750000e+000
      vertex -7.000000e+000  7.407784e-001  2.907103e+000
    endloop
  endfacet
  facet normal -1.000000e+000  0.000000e+000  0.000000e+000
    outer loop
      vertex -7.000000e+000  7.407784e-001 -2.907103e+000
      vertex -7.000000e+000 -1.198958e+000 -2.750000e+000
      vertex -7.000000e+000  2.368790e+000 -1.840878e+000
    endloop
  endfacet
  facet normal -1.000000e+000  -0.000000e+000  0.000000e+000
    outer loop
      vertex -7.000000e+000  2.368790e+000 -1.840878e+000
      vertex -7.000000e+000 -1.198958e+000 -2.750000e+000
      vertex -7.000000e+000 -1.198958e+000 -2.220446e-016
    endloop
  endfacet
  facet normal -1.000000e+000  0.000000e+000  0.000000e+000
    outer loop
      vertex -7.000000e+000  2.368790e+000 -1.840878e+000
      vertex -7.000000e+000 -1.198958e+000 -2.220446e-016
      vertex -7.000000e+000  3.000000e+000 -7.347638e-016
    endloop
  endfacet
endsolid CATIA STL
