solid CATIA STL
  facet normal  0.000000e+000  0.000000e+000  1.000000e+000
    outer loop
      vertex  2.000000e+001 -2.500000e+001  3.000000e+000
      vertex  1.450000e+001  2.000000e+001  3.000000e+000
      vertex  1.406066e+001  1.893934e+001  3.000000e+000
    endloop
  endfacet
  facet normal  0.000000e+000  0.000000e+000  9.999999e-001
    outer loop
      vertex  2.000000e+001 -2.500000e+001  3.000000e+000
      vertex  1.406066e+001  1.893934e+001  3.000000e+000
      vertex  1.300000e+001  1.850000e+001  3.000000e+000
    endloop
  endfacet
  facet normal  0.000000e+000  0.000000e+000  1.000000e+000
    outer loop
      vertex  2.000000e+001 -2.500000e+001  3.000000e+000
      vertex  1.300000e+001  1.850000e+001  3.000000e+000
      vertex -1.300000e+001  1.850000e+001  3.000000e+000
    endloop
  endfacet
  facet normal  0.000000e+000  0.000000e+000  1.000000e+000
    outer loop
      vertex  2.000000e+001 -2.500000e+001  3.000000e+000
      vertex -1.300000e+001  1.850000e+001  3.000000e+000
      vertex -2.000000e+001 -2.500000e+001  3.000000e+000
    endloop
  endfacet
  facet normal  0.000000e+000  0.000000e+000  1.000000e+000
    outer loop
      vertex -2.000000e+001 -2.500000e+001  3.000000e+000
      vertex -1.300000e+001  1.850000e+001  3.000000e+000
      vertex -1.406066e+001  1.893934e+001  3.000000e+000
    endloop
  endfacet
  facet normal  0.000000e+000  0.000000e+000  1.000000e+000
    outer loop
      vertex -2.000000e+001 -2.500000e+001  3.000000e+000
      vertex -1.406066e+001  1.893934e+001  3.000000e+000
      vertex -1.450000e+001  2.000000e+001  3.000000e+000
    endloop
  endfacet
  facet normal  0.000000e+000  0.000000e+000  1.000000e+000
    outer loop
      vertex -2.000000e+001 -2.500000e+001  3.000000e+000
      vertex -1.450000e+001  2.000000e+001  3.000000e+000
      vertex -2.000000e+001  2.500000e+001  3.000000e+000
    endloop
  endfacet
  facet normal  0.000000e+000  -0.000000e+000  1.000000e+000
    outer loop
      vertex -2.000000e+001  2.500000e+001  3.000000e+000
      vertex -1.450000e+001  2.000000e+001  3.000000e+000
      vertex -1.406066e+001  2.106066e+001  3.000000e+000
    endloop
  endfacet
  facet normal  0.000000e+000  -0.000000e+000  1.000000e+000
    outer loop
      vertex -2.000000e+001  2.500000e+001  3.000000e+000
      vertex -1.406066e+001  2.106066e+001  3.000000e+000
      vertex -1.300000e+001  2.150000e+001  3.000000e+000
    endloop
  endfacet
  facet normal  0.000000e+000  -0.000000e+000  1.000000e+000
    outer loop
      vertex -2.000000e+001  2.500000e+001  3.000000e+000
      vertex -1.300000e+001  2.150000e+001  3.000000e+000
      vertex  1.300000e+001  2.150000e+001  3.000000e+000
    endloop
  endfacet
  facet normal  0.000000e+000  -0.000000e+000  1.000000e+000
    outer loop
      vertex -2.000000e+001  2.500000e+001  3.000000e+000
      vertex  1.300000e+001  2.150000e+001  3.000000e+000
      vertex  2.000000e+001  2.500000e+001  3.000000e+000
    endloop
  endfacet
  facet normal  -0.000000e+000  0.000000e+000  1.000000e+000
    outer loop
      vertex  2.000000e+001  2.500000e+001  3.000000e+000
      vertex  1.300000e+001  2.150000e+001  3.000000e+000
      vertex  1.406066e+001  2.106066e+001  3.000000e+000
    endloop
  endfacet
  facet normal  -0.000000e+000  0.000000e+000  1.000000e+000
    outer loop
      vertex  2.000000e+001  2.500000e+001  3.000000e+000
      vertex  1.406066e+001  2.106066e+001  3.000000e+000
      vertex  1.450000e+001  2.000000e+001  3.000000e+000
    endloop
  endfacet
  facet normal  -0.000000e+000  0.000000e+000  1.000000e+000
    outer loop
      vertex  2.000000e+001  2.500000e+001  3.000000e+000
      vertex  1.450000e+001  2.000000e+001  3.000000e+000
      vertex  2.000000e+001 -2.500000e+001  3.000000e+000
    endloop
  endfacet
  facet normal  -0.000000e+000  0.000000e+000  1.000000e+000
    outer loop
      vertex  1.300000e+001  2.150000e+001  3.000000e+000
      vertex -1.300000e+001  2.150000e+001  3.000000e+000
      vertex  1.193934e+001  2.106066e+001  3.000000e+000
    endloop
  endfacet
  facet normal  0.000000e+000  0.000000e+000  1.000000e+000
    outer loop
      vertex  1.193934e+001  2.106066e+001  3.000000e+000
      vertex -1.300000e+001  2.150000e+001  3.000000e+000
      vertex -1.193934e+001  2.106066e+001  3.000000e+000
    endloop
  endfacet
  facet normal  -0.000000e+000  0.000000e+000  1.000000e+000
    outer loop
      vertex  1.193934e+001  2.106066e+001  3.000000e+000
      vertex -1.193934e+001  2.106066e+001  3.000000e+000
      vertex  1.150000e+001  2.000000e+001  3.000000e+000
    endloop
  endfacet
  facet normal  0.000000e+000  0.000000e+000  1.000000e+000
    outer loop
      vertex  1.150000e+001  2.000000e+001  3.000000e+000
      vertex -1.193934e+001  2.106066e+001  3.000000e+000
      vertex -1.150000e+001  2.000000e+001  3.000000e+000
    endloop
  endfacet
  facet normal  -0.000000e+000  0.000000e+000  1.000000e+000
    outer loop
      vertex  1.150000e+001  2.000000e+001  3.000000e+000
      vertex -1.150000e+001  2.000000e+001  3.000000e+000
      vertex  1.193934e+001  1.893934e+001  3.000000e+000
    endloop
  endfacet
  facet normal  0.000000e+000  0.000000e+000  1.000000e+000
    outer loop
      vertex  1.193934e+001  1.893934e+001  3.000000e+000
      vertex -1.150000e+001  2.000000e+001  3.000000e+000
      vertex -1.193934e+001  1.893934e+001  3.000000e+000
    endloop
  endfacet
  facet normal  -0.000000e+000  0.000000e+000  1.000000e+000
    outer loop
      vertex  1.193934e+001  1.893934e+001  3.000000e+000
      vertex -1.193934e+001  1.893934e+001  3.000000e+000
      vertex  1.300000e+001  1.850000e+001  3.000000e+000
    endloop
  endfacet
  facet normal  0.000000e+000  0.000000e+000  1.000000e+000
    outer loop
      vertex  1.300000e+001  1.850000e+001  3.000000e+000
      vertex -1.193934e+001  1.893934e+001  3.000000e+000
      vertex -1.300000e+001  1.850000e+001  3.000000e+000
    endloop
  endfacet
  facet normal  0.000000e+000  0.000000e+000 -1.000000e+000
    outer loop
      vertex  2.000000e+001 -2.500000e+001  0.000000e+000
      vertex -2.000000e+001 -2.500000e+001  0.000000e+000
      vertex -1.300000e+001  1.850000e+001  0.000000e+000
    endloop
  endfacet
  facet normal  0.000000e+000  0.000000e+000 -1.000000e+000
    outer loop
      vertex  2.000000e+001 -2.500000e+001  0.000000e+000
      vertex -1.300000e+001  1.850000e+001  0.000000e+000
      vertex  1.300000e+001  1.850000e+001  0.000000e+000
    endloop
  endfacet
  facet normal  0.000000e+000  0.000000e+000 -1.000000e+000
    outer loop
      vertex  2.000000e+001 -2.500000e+001  0.000000e+000
      vertex  1.300000e+001  1.850000e+001  0.000000e+000
      vertex  1.406066e+001  1.893934e+001  0.000000e+000
    endloop
  endfacet
  facet normal  0.000000e+000  0.000000e+000 -1.000000e+000
    outer loop
      vertex  2.000000e+001 -2.500000e+001  0.000000e+000
      vertex  1.406066e+001  1.893934e+001  0.000000e+000
      vertex  1.450000e+001  2.000000e+001  0.000000e+000
    endloop
  endfacet
  facet normal  0.000000e+000  0.000000e+000 -1.000000e+000
    outer loop
      vertex -2.000000e+001 -2.500000e+001  0.000000e+000
      vertex -2.000000e+001  2.500000e+001  0.000000e+000
      vertex -1.450000e+001  2.000000e+001  0.000000e+000
    endloop
  endfacet
  facet normal  0.000000e+000  -0.000000e+000 -1.000000e+000
    outer loop
      vertex -2.000000e+001 -2.500000e+001  0.000000e+000
      vertex -1.450000e+001  2.000000e+001  0.000000e+000
      vertex -1.406066e+001  1.893934e+001  0.000000e+000
    endloop
  endfacet
  facet normal  0.000000e+000  -0.000000e+000 -9.999999e-001
    outer loop
      vertex -2.000000e+001 -2.500000e+001  0.000000e+000
      vertex -1.406066e+001  1.893934e+001  0.000000e+000
      vertex -1.300000e+001  1.850000e+001  0.000000e+000
    endloop
  endfacet
  facet normal  -0.000000e+000  0.000000e+000 -1.000000e+000
    outer loop
      vertex -2.000000e+001  2.500000e+001  0.000000e+000
      vertex  2.000000e+001  2.500000e+001  0.000000e+000
      vertex  1.300000e+001  2.150000e+001  0.000000e+000
    endloop
  endfacet
  facet normal  0.000000e+000  0.000000e+000 -1.000000e+000
    outer loop
      vertex -2.000000e+001  2.500000e+001  0.000000e+000
      vertex  1.300000e+001  2.150000e+001  0.000000e+000
      vertex -1.300000e+001  2.150000e+001  0.000000e+000
    endloop
  endfacet
  facet normal  -0.000000e+000  0.000000e+000 -1.000000e+000
    outer loop
      vertex -2.000000e+001  2.500000e+001  0.000000e+000
      vertex -1.300000e+001  2.150000e+001  0.000000e+000
      vertex -1.406066e+001  2.106066e+001  0.000000e+000
    endloop
  endfacet
  facet normal  -0.000000e+000  0.000000e+000 -1.000000e+000
    outer loop
      vertex -2.000000e+001  2.500000e+001  0.000000e+000
      vertex -1.406066e+001  2.106066e+001  0.000000e+000
      vertex -1.450000e+001  2.000000e+001  0.000000e+000
    endloop
  endfacet
  facet normal  0.000000e+000  0.000000e+000 -1.000000e+000
    outer loop
      vertex  2.000000e+001  2.500000e+001  0.000000e+000
      vertex  2.000000e+001 -2.500000e+001  0.000000e+000
      vertex  1.450000e+001  2.000000e+001  0.000000e+000
    endloop
  endfacet
  facet normal  0.000000e+000  0.000000e+000 -1.000000e+000
    outer loop
      vertex  2.000000e+001  2.500000e+001  0.000000e+000
      vertex  1.450000e+001  2.000000e+001  0.000000e+000
      vertex  1.406066e+001  2.106066e+001  0.000000e+000
    endloop
  endfacet
  facet normal  0.000000e+000  0.000000e+000 -1.000000e+000
    outer loop
      vertex  2.000000e+001  2.500000e+001  0.000000e+000
      vertex  1.406066e+001  2.106066e+001  0.000000e+000
      vertex  1.300000e+001  2.150000e+001  0.000000e+000
    endloop
  endfacet
  facet normal  0.000000e+000  0.000000e+000 -1.000000e+000
    outer loop
      vertex  1.150000e+001  2.000000e+001  0.000000e+000
      vertex -1.193934e+001  2.106066e+001  0.000000e+000
      vertex  1.193934e+001  2.106066e+001  0.000000e+000
    endloop
  endfacet
  facet normal  0.000000e+000  0.000000e+000 -1.000000e+000
    outer loop
      vertex  1.193934e+001  2.106066e+001  0.000000e+000
      vertex -1.193934e+001  2.106066e+001  0.000000e+000
      vertex -1.300000e+001  2.150000e+001  0.000000e+000
    endloop
  endfacet
  facet normal  0.000000e+000  0.000000e+000 -1.000000e+000
    outer loop
      vertex  1.193934e+001  2.106066e+001  0.000000e+000
      vertex -1.300000e+001  2.150000e+001  0.000000e+000
      vertex  1.300000e+001  2.150000e+001  0.000000e+000
    endloop
  endfacet
  facet normal  0.000000e+000  0.000000e+000 -1.000000e+000
    outer loop
      vertex -1.193934e+001  2.106066e+001  0.000000e+000
      vertex  1.150000e+001  2.000000e+001  0.000000e+000
      vertex -1.150000e+001  2.000000e+001  0.000000e+000
    endloop
  endfacet
  facet normal  0.000000e+000  0.000000e+000 -1.000000e+000
    outer loop
      vertex -1.150000e+001  2.000000e+001  0.000000e+000
      vertex  1.150000e+001  2.000000e+001  0.000000e+000
      vertex  1.193934e+001  1.893934e+001  0.000000e+000
    endloop
  endfacet
  facet normal  0.000000e+000  0.000000e+000 -1.000000e+000
    outer loop
      vertex -1.150000e+001  2.000000e+001  0.000000e+000
      vertex  1.193934e+001  1.893934e+001  0.000000e+000
      vertex -1.193934e+001  1.893934e+001  0.000000e+000
    endloop
  endfacet
  facet normal  0.000000e+000  0.000000e+000 -1.000000e+000
    outer loop
      vertex -1.193934e+001  1.893934e+001  0.000000e+000
      vertex  1.193934e+001  1.893934e+001  0.000000e+000
      vertex  1.300000e+001  1.850000e+001  0.000000e+000
    endloop
  endfacet
  facet normal  0.000000e+000  0.000000e+000 -1.000000e+000
    outer loop
      vertex -1.193934e+001  1.893934e+001  0.000000e+000
      vertex  1.300000e+001  1.850000e+001  0.000000e+000
      vertex -1.300000e+001  1.850000e+001  0.000000e+000
    endloop
  endfacet
  facet normal -3.826839e-001  9.238793e-001  0.000000e+000
    outer loop
      vertex  1.300000e+001  1.850000e+001  0.000000e+000
      vertex  1.406066e+001  1.893934e+001  3.000000e+000
      vertex  1.406066e+001  1.893934e+001  0.000000e+000
    endloop
  endfacet
  facet normal -9.238795e-001  3.826835e-001  0.000000e+000
    outer loop
      vertex  1.406066e+001  1.893934e+001  0.000000e+000
      vertex  1.406066e+001  1.893934e+001  3.000000e+000
      vertex  1.450000e+001  2.000000e+001  3.000000e+000
    endloop
  endfacet
  facet normal -9.238795e-001  3.826835e-001  0.000000e+000
    outer loop
      vertex  1.406066e+001  1.893934e+001  0.000000e+000
      vertex  1.450000e+001  2.000000e+001  3.000000e+000
      vertex  1.450000e+001  2.000000e+001  0.000000e+000
    endloop
  endfacet
  facet normal -3.826839e-001  9.238793e-001  0.000000e+000
    outer loop
      vertex  1.406066e+001  1.893934e+001  3.000000e+000
      vertex  1.300000e+001  1.850000e+001  0.000000e+000
      vertex  1.300000e+001  1.850000e+001  3.000000e+000
    endloop
  endfacet
  facet normal  3.826839e-001  9.238793e-001  0.000000e+000
    outer loop
      vertex  1.300000e+001  1.850000e+001  3.000000e+000
      vertex  1.300000e+001  1.850000e+001  0.000000e+000
      vertex  1.193934e+001  1.893934e+001  0.000000e+000
    endloop
  endfacet
  facet normal  3.826839e-001  9.238793e-001  -0.000000e+000
    outer loop
      vertex  1.300000e+001  1.850000e+001  3.000000e+000
      vertex  1.193934e+001  1.893934e+001  0.000000e+000
      vertex  1.193934e+001  1.893934e+001  3.000000e+000
    endloop
  endfacet
  facet normal  9.238795e-001  3.826835e-001  0.000000e+000
    outer loop
      vertex  1.193934e+001  1.893934e+001  3.000000e+000
      vertex  1.193934e+001  1.893934e+001  0.000000e+000
      vertex  1.150000e+001  2.000000e+001  0.000000e+000
    endloop
  endfacet
  facet normal  9.238795e-001  3.826835e-001  -0.000000e+000
    outer loop
      vertex  1.193934e+001  1.893934e+001  3.000000e+000
      vertex  1.150000e+001  2.000000e+001  0.000000e+000
      vertex  1.150000e+001  2.000000e+001  3.000000e+000
    endloop
  endfacet
  facet normal  3.826839e-001 -9.238793e-001  0.000000e+000
    outer loop
      vertex  1.300000e+001  2.150000e+001  0.000000e+000
      vertex  1.193934e+001  2.106066e+001  3.000000e+000
      vertex  1.193934e+001  2.106066e+001  0.000000e+000
    endloop
  endfacet
  facet normal  9.238795e-001 -3.826835e-001  0.000000e+000
    outer loop
      vertex  1.193934e+001  2.106066e+001  0.000000e+000
      vertex  1.193934e+001  2.106066e+001  3.000000e+000
      vertex  1.150000e+001  2.000000e+001  3.000000e+000
    endloop
  endfacet
  facet normal  9.238795e-001 -3.826835e-001  0.000000e+000
    outer loop
      vertex  1.193934e+001  2.106066e+001  0.000000e+000
      vertex  1.150000e+001  2.000000e+001  3.000000e+000
      vertex  1.150000e+001  2.000000e+001  0.000000e+000
    endloop
  endfacet
  facet normal  3.826839e-001 -9.238793e-001  0.000000e+000
    outer loop
      vertex  1.193934e+001  2.106066e+001  3.000000e+000
      vertex  1.300000e+001  2.150000e+001  0.000000e+000
      vertex  1.300000e+001  2.150000e+001  3.000000e+000
    endloop
  endfacet
  facet normal -3.826839e-001 -9.238793e-001  -0.000000e+000
    outer loop
      vertex  1.300000e+001  2.150000e+001  3.000000e+000
      vertex  1.300000e+001  2.150000e+001  0.000000e+000
      vertex  1.406066e+001  2.106066e+001  0.000000e+000
    endloop
  endfacet
  facet normal -3.826839e-001 -9.238793e-001  0.000000e+000
    outer loop
      vertex  1.300000e+001  2.150000e+001  3.000000e+000
      vertex  1.406066e+001  2.106066e+001  0.000000e+000
      vertex  1.406066e+001  2.106066e+001  3.000000e+000
    endloop
  endfacet
  facet normal -9.238795e-001 -3.826835e-001  -0.000000e+000
    outer loop
      vertex  1.406066e+001  2.106066e+001  3.000000e+000
      vertex  1.406066e+001  2.106066e+001  0.000000e+000
      vertex  1.450000e+001  2.000000e+001  0.000000e+000
    endloop
  endfacet
  facet normal -9.238795e-001 -3.826835e-001  0.000000e+000
    outer loop
      vertex  1.406066e+001  2.106066e+001  3.000000e+000
      vertex  1.450000e+001  2.000000e+001  0.000000e+000
      vertex  1.450000e+001  2.000000e+001  3.000000e+000
    endloop
  endfacet
  facet normal  3.826839e-001 -9.238793e-001  0.000000e+000
    outer loop
      vertex -1.300000e+001  2.150000e+001  0.000000e+000
      vertex -1.406066e+001  2.106066e+001  3.000000e+000
      vertex -1.406066e+001  2.106066e+001  0.000000e+000
    endloop
  endfacet
  facet normal  9.238795e-001 -3.826835e-001  0.000000e+000
    outer loop
      vertex -1.406066e+001  2.106066e+001  0.000000e+000
      vertex -1.406066e+001  2.106066e+001  3.000000e+000
      vertex -1.450000e+001  2.000000e+001  3.000000e+000
    endloop
  endfacet
  facet normal  9.238795e-001 -3.826835e-001  0.000000e+000
    outer loop
      vertex -1.406066e+001  2.106066e+001  0.000000e+000
      vertex -1.450000e+001  2.000000e+001  3.000000e+000
      vertex -1.450000e+001  2.000000e+001  0.000000e+000
    endloop
  endfacet
  facet normal  3.826839e-001 -9.238793e-001  0.000000e+000
    outer loop
      vertex -1.406066e+001  2.106066e+001  3.000000e+000
      vertex -1.300000e+001  2.150000e+001  0.000000e+000
      vertex -1.300000e+001  2.150000e+001  3.000000e+000
    endloop
  endfacet
  facet normal -3.826839e-001 -9.238793e-001  -0.000000e+000
    outer loop
      vertex -1.300000e+001  2.150000e+001  3.000000e+000
      vertex -1.300000e+001  2.150000e+001  0.000000e+000
      vertex -1.193934e+001  2.106066e+001  0.000000e+000
    endloop
  endfacet
  facet normal -3.826839e-001 -9.238793e-001  0.000000e+000
    outer loop
      vertex -1.300000e+001  2.150000e+001  3.000000e+000
      vertex -1.193934e+001  2.106066e+001  0.000000e+000
      vertex -1.193934e+001  2.106066e+001  3.000000e+000
    endloop
  endfacet
  facet normal -9.238795e-001 -3.826835e-001  -0.000000e+000
    outer loop
      vertex -1.193934e+001  2.106066e+001  3.000000e+000
      vertex -1.193934e+001  2.106066e+001  0.000000e+000
      vertex -1.150000e+001  2.000000e+001  0.000000e+000
    endloop
  endfacet
  facet normal -9.238795e-001 -3.826835e-001  0.000000e+000
    outer loop
      vertex -1.193934e+001  2.106066e+001  3.000000e+000
      vertex -1.150000e+001  2.000000e+001  0.000000e+000
      vertex -1.150000e+001  2.000000e+001  3.000000e+000
    endloop
  endfacet
  facet normal -3.826839e-001  9.238793e-001  0.000000e+000
    outer loop
      vertex -1.300000e+001  1.850000e+001  0.000000e+000
      vertex -1.193934e+001  1.893934e+001  3.000000e+000
      vertex -1.193934e+001  1.893934e+001  0.000000e+000
    endloop
  endfacet
  facet normal -9.238795e-001  3.826835e-001  0.000000e+000
    outer loop
      vertex -1.193934e+001  1.893934e+001  0.000000e+000
      vertex -1.193934e+001  1.893934e+001  3.000000e+000
      vertex -1.150000e+001  2.000000e+001  3.000000e+000
    endloop
  endfacet
  facet normal -9.238795e-001  3.826835e-001  0.000000e+000
    outer loop
      vertex -1.193934e+001  1.893934e+001  0.000000e+000
      vertex -1.150000e+001  2.000000e+001  3.000000e+000
      vertex -1.150000e+001  2.000000e+001  0.000000e+000
    endloop
  endfacet
  facet normal -3.826839e-001  9.238793e-001  0.000000e+000
    outer loop
      vertex -1.193934e+001  1.893934e+001  3.000000e+000
      vertex -1.300000e+001  1.850000e+001  0.000000e+000
      vertex -1.300000e+001  1.850000e+001  3.000000e+000
    endloop
  endfacet
  facet normal  3.826839e-001  9.238793e-001  0.000000e+000
    outer loop
      vertex -1.300000e+001  1.850000e+001  3.000000e+000
      vertex -1.300000e+001  1.850000e+001  0.000000e+000
      vertex -1.406066e+001  1.893934e+001  0.000000e+000
    endloop
  endfacet
  facet normal  3.826839e-001  9.238793e-001  -0.000000e+000
    outer loop
      vertex -1.300000e+001  1.850000e+001  3.000000e+000
      vertex -1.406066e+001  1.893934e+001  0.000000e+000
      vertex -1.406066e+001  1.893934e+001  3.000000e+000
    endloop
  endfacet
  facet normal  9.238795e-001  3.826835e-001  0.000000e+000
    outer loop
      vertex -1.406066e+001  1.893934e+001  3.000000e+000
      vertex -1.406066e+001  1.893934e+001  0.000000e+000
      vertex -1.450000e+001  2.000000e+001  0.000000e+000
    endloop
  endfacet
  facet normal  9.238795e-001  3.826835e-001  -0.000000e+000
    outer loop
      vertex -1.406066e+001  1.893934e+001  3.000000e+000
      vertex -1.450000e+001  2.000000e+001  0.000000e+000
      vertex -1.450000e+001  2.000000e+001  3.000000e+000
    endloop
  endfacet
  facet normal  0.000000e+000  1.000000e+000  0.000000e+000
    outer loop
      vertex -2.000000e+001  2.500000e+001  3.000000e+000
      vertex  2.000000e+001  2.500000e+001  3.000000e+000
      vertex -2.000000e+001  2.500000e+001  0.000000e+000
    endloop
  endfacet
  facet normal  0.000000e+000  1.000000e+000  0.000000e+000
    outer loop
      vertex -2.000000e+001  2.500000e+001  0.000000e+000
      vertex  2.000000e+001  2.500000e+001  3.000000e+000
      vertex  2.000000e+001  2.500000e+001  0.000000e+000
    endloop
  endfacet
  facet normal  1.000000e+000  0.000000e+000  0.000000e+000
    outer loop
      vertex  2.000000e+001 -2.500000e+001  3.000000e+000
      vertex  2.000000e+001 -2.500000e+001  0.000000e+000
      vertex  2.000000e+001  2.500000e+001  3.000000e+000
    endloop
  endfacet
  facet normal  1.000000e+000  0.000000e+000  0.000000e+000
    outer loop
      vertex  2.000000e+001  2.500000e+001  3.000000e+000
      vertex  2.000000e+001 -2.500000e+001  0.000000e+000
      vertex  2.000000e+001  2.500000e+001  0.000000e+000
    endloop
  endfacet
  facet normal  0.000000e+000 -1.000000e+000  0.000000e+000
    outer loop
      vertex  2.000000e+001 -2.500000e+001  3.000000e+000
      vertex -2.000000e+001 -2.500000e+001  3.000000e+000
      vertex  2.000000e+001 -2.500000e+001  0.000000e+000
    endloop
  endfacet
  facet normal  0.000000e+000 -1.000000e+000  0.000000e+000
    outer loop
      vertex  2.000000e+001 -2.500000e+001  0.000000e+000
      vertex -2.000000e+001 -2.500000e+001  3.000000e+000
      vertex -2.000000e+001 -2.500000e+001  0.000000e+000
    endloop
  endfacet
  facet normal -1.000000e+000  0.000000e+000  0.000000e+000
    outer loop
      vertex -2.000000e+001  2.500000e+001  3.000000e+000
      vertex -2.000000e+001  2.500000e+001  0.000000e+000
      vertex -2.000000e+001 -2.500000e+001  3.000000e+000
    endloop
  endfacet
  facet normal -1.000000e+000  0.000000e+000  0.000000e+000
    outer loop
      vertex -2.000000e+001 -2.500000e+001  3.000000e+000
      vertex -2.000000e+001  2.500000e+001  0.000000e+000
      vertex -2.000000e+001 -2.500000e+001  0.000000e+000
    endloop
  endfacet
endsolid CATIA STL
