solid CATIA STL
  facet normal  0.000000e+000  4.999979e-001 -8.660266e-001
    outer loop
      vertex  1.350000e+001 -1.422424e+001  5.724744e+001
      vertex -1.350000e+001 -1.422424e+001  5.724744e+001
      vertex -1.393934e+001 -1.330568e+001  5.777777e+001
    endloop
  endfacet
  facet normal  0.000000e+000  5.000002e-001 -8.660253e-001
    outer loop
      vertex  1.350000e+001 -1.422424e+001  5.724744e+001
      vertex -1.393934e+001 -1.514280e+001  5.671711e+001
      vertex -1.350000e+001 -1.422424e+001  5.724744e+001
    endloop
  endfacet
  facet normal  1.828895e-007  4.999999e-001 -8.660254e-001
    outer loop
      vertex -2.500000e+001 -3.154475e+001  4.724744e+001
      vertex -2.500000e+001 -5.160444e+000  6.248042e+001
      vertex -1.650000e+001 -1.422424e+001  5.724744e+001
    endloop
  endfacet
  facet normal -3.464293e-007  5.000001e-001 -8.660253e-001
    outer loop
      vertex -2.500000e+001 -3.154475e+001  4.724744e+001
      vertex -1.650000e+001 -1.422424e+001  5.724744e+001
      vertex -1.606066e+001 -1.514280e+001  5.671711e+001
    endloop
  endfacet
  facet normal  1.348082e-007  4.999999e-001 -8.660255e-001
    outer loop
      vertex -2.500000e+001 -3.154475e+001  4.724744e+001
      vertex -1.606066e+001 -1.514280e+001  5.671711e+001
      vertex -1.500000e+001 -1.552328e+001  5.649744e+001
    endloop
  endfacet
  facet normal -2.263465e-007  5.000001e-001 -8.660254e-001
    outer loop
      vertex -2.500000e+001 -3.154475e+001  4.724744e+001
      vertex -1.500000e+001 -1.552328e+001  5.649744e+001
      vertex -1.393934e+001 -1.514280e+001  5.671711e+001
    endloop
  endfacet
  facet normal  1.313718e-008  5.000000e-001 -8.660255e-001
    outer loop
      vertex -2.500000e+001 -3.154475e+001  4.724744e+001
      vertex -1.393934e+001 -1.514280e+001  5.671711e+001
      vertex  1.350000e+001 -1.422424e+001  5.724744e+001
    endloop
  endfacet
  facet normal -1.242847e-007  5.000002e-001 -8.660253e-001
    outer loop
      vertex -2.500000e+001 -3.154475e+001  4.724744e+001
      vertex  1.350000e+001 -1.422424e+001  5.724744e+001
      vertex  1.393934e+001 -1.514280e+001  5.671711e+001
    endloop
  endfacet
  facet normal  8.703942e-008  4.999998e-001 -8.660256e-001
    outer loop
      vertex -2.500000e+001 -3.154475e+001  4.724744e+001
      vertex  1.393934e+001 -1.514280e+001  5.671711e+001
      vertex  1.500000e+001 -1.552328e+001  5.649744e+001
    endloop
  endfacet
  facet normal -1.682577e-006  5.000032e-001 -8.660236e-001
    outer loop
      vertex -2.500000e+001 -3.154475e+001  4.724744e+001
      vertex  1.500000e+001 -1.552328e+001  5.649744e+001
      vertex  1.606066e+001 -1.514280e+001  5.671711e+001
    endloop
  endfacet
  facet normal  0.000000e+000  4.999999e-001 -8.660254e-001
    outer loop
      vertex -2.500000e+001 -3.154475e+001  4.724744e+001
      vertex  1.606066e+001 -1.514280e+001  5.671711e+001
      vertex  2.500000e+001 -3.154475e+001  4.724744e+001
    endloop
  endfacet
  facet normal  9.135333e-007  5.000032e-001 -8.660235e-001
    outer loop
      vertex -2.500000e+001 -5.160444e+000  6.248042e+001
      vertex  1.500000e+001 -1.292520e+001  5.799744e+001
      vertex  1.393934e+001 -1.330568e+001  5.777777e+001
    endloop
  endfacet
  facet normal -5.248564e-007  4.999981e-001 -8.660265e-001
    outer loop
      vertex -2.500000e+001 -5.160444e+000  6.248042e+001
      vertex  1.393934e+001 -1.330568e+001  5.777777e+001
      vertex  1.350000e+001 -1.422424e+001  5.724744e+001
    endloop
  endfacet
  facet normal  9.679979e-008  5.000001e-001 -8.660253e-001
    outer loop
      vertex -2.500000e+001 -5.160444e+000  6.248042e+001
      vertex  1.350000e+001 -1.422424e+001  5.724744e+001
      vertex -1.393934e+001 -1.330568e+001  5.777777e+001
    endloop
  endfacet
  facet normal -4.835733e-006  4.999951e-001 -8.660282e-001
    outer loop
      vertex -2.500000e+001 -5.160444e+000  6.248042e+001
      vertex -1.393934e+001 -1.330568e+001  5.777777e+001
      vertex -1.500000e+001 -1.292520e+001  5.799744e+001
    endloop
  endfacet
  facet normal  1.779561e-006  5.000014e-001 -8.660246e-001
    outer loop
      vertex -2.500000e+001 -5.160444e+000  6.248042e+001
      vertex -1.500000e+001 -1.292520e+001  5.799744e+001
      vertex -1.606066e+001 -1.330568e+001  5.777777e+001
    endloop
  endfacet
  facet normal -1.751618e-006  4.999985e-001 -8.660262e-001
    outer loop
      vertex -2.500000e+001 -5.160444e+000  6.248042e+001
      vertex -1.606066e+001 -1.330568e+001  5.777777e+001
      vertex -1.650000e+001 -1.422424e+001  5.724744e+001
    endloop
  endfacet
  facet normal -7.684199e-008  4.999999e-001 -8.660254e-001
    outer loop
      vertex  2.500000e+001 -5.160444e+000  6.248042e+001
      vertex  2.500000e+001 -3.154475e+001  4.724744e+001
      vertex  1.606066e+001 -1.514280e+001  5.671711e+001
    endloop
  endfacet
  facet normal -1.299162e-006  5.000007e-001 -8.660250e-001
    outer loop
      vertex  2.500000e+001 -5.160444e+000  6.248042e+001
      vertex  1.606066e+001 -1.514280e+001  5.671711e+001
      vertex  1.650000e+001 -1.422424e+001  5.724744e+001
    endloop
  endfacet
  facet normal  1.751618e-006  4.999985e-001 -8.660262e-001
    outer loop
      vertex  2.500000e+001 -5.160444e+000  6.248042e+001
      vertex  1.650000e+001 -1.422424e+001  5.724744e+001
      vertex  1.606066e+001 -1.330568e+001  5.777777e+001
    endloop
  endfacet
  facet normal -1.779561e-006  5.000014e-001 -8.660246e-001
    outer loop
      vertex  2.500000e+001 -5.160444e+000  6.248042e+001
      vertex  1.606066e+001 -1.330568e+001  5.777777e+001
      vertex  1.500000e+001 -1.292520e+001  5.799744e+001
    endloop
  endfacet
  facet normal  0.000000e+000  4.999998e-001 -8.660255e-001
    outer loop
      vertex  2.500000e+001 -5.160444e+000  6.248042e+001
      vertex  1.500000e+001 -1.292520e+001  5.799744e+001
      vertex -2.500000e+001 -5.160444e+000  6.248042e+001
    endloop
  endfacet
  facet normal  1.022138e-006 -5.000003e-001  8.660253e-001
    outer loop
      vertex  1.606066e+001 -1.480568e+001  6.037585e+001
      vertex  1.650000e+001 -1.572424e+001  5.984552e+001
      vertex  2.500000e+001  1.596267e+000  6.984551e+001
    endloop
  endfacet
  facet normal  0.000000e+000 -5.000006e-001  8.660250e-001
    outer loop
      vertex -1.393934e+001 -1.480568e+001  6.037585e+001
      vertex -1.350000e+001 -1.572424e+001  5.984552e+001
      vertex  1.350000e+001 -1.572424e+001  5.984552e+001
    endloop
  endfacet
  facet normal  0.000000e+000 -5.000006e-001  8.660250e-001
    outer loop
      vertex -1.350000e+001 -1.572424e+001  5.984552e+001
      vertex -1.393934e+001 -1.664280e+001  5.931519e+001
      vertex  1.350000e+001 -1.572424e+001  5.984552e+001
    endloop
  endfacet
  facet normal  8.213392e-008 -4.999999e-001  8.660254e-001
    outer loop
      vertex  2.500000e+001 -3.304475e+001  4.984552e+001
      vertex  2.500000e+001  1.596267e+000  6.984551e+001
      vertex  1.650000e+001 -1.572424e+001  5.984552e+001
    endloop
  endfacet
  facet normal -8.821287e-007 -5.000003e-001  8.660253e-001
    outer loop
      vertex  2.500000e+001 -3.304475e+001  4.984552e+001
      vertex  1.650000e+001 -1.572424e+001  5.984552e+001
      vertex  1.606066e+001 -1.664280e+001  5.931519e+001
    endloop
  endfacet
  facet normal  0.000000e+000 -4.999999e-001  8.660254e-001
    outer loop
      vertex  2.500000e+001 -3.304475e+001  4.984552e+001
      vertex  1.606066e+001 -1.664280e+001  5.931519e+001
      vertex -2.500000e+001 -3.304475e+001  4.984552e+001
    endloop
  endfacet
  facet normal  5.988700e-006 -5.000112e-001  8.660190e-001
    outer loop
      vertex -2.500000e+001 -3.304475e+001  4.984552e+001
      vertex  1.606066e+001 -1.664280e+001  5.931519e+001
      vertex  1.500000e+001 -1.702328e+001  5.909552e+001
    endloop
  endfacet
  facet normal -3.298350e-007 -4.999993e-001  8.660258e-001
    outer loop
      vertex -2.500000e+001 -3.304475e+001  4.984552e+001
      vertex  1.500000e+001 -1.702328e+001  5.909552e+001
      vertex  1.393934e+001 -1.664280e+001  5.931519e+001
    endloop
  endfacet
  facet normal  3.164718e-007 -5.000005e-001  8.660251e-001
    outer loop
      vertex -2.500000e+001 -3.304475e+001  4.984552e+001
      vertex  1.393934e+001 -1.664280e+001  5.931519e+001
      vertex  1.350000e+001 -1.572424e+001  5.984552e+001
    endloop
  endfacet
  facet normal -3.091640e-008 -4.999999e-001  8.660254e-001
    outer loop
      vertex -2.500000e+001 -3.304475e+001  4.984552e+001
      vertex  1.350000e+001 -1.572424e+001  5.984552e+001
      vertex -1.393934e+001 -1.664280e+001  5.931519e+001
    endloop
  endfacet
  facet normal  8.056093e-007 -5.000004e-001  8.660251e-001
    outer loop
      vertex -2.500000e+001 -3.304475e+001  4.984552e+001
      vertex -1.393934e+001 -1.664280e+001  5.931519e+001
      vertex -1.500000e+001 -1.702328e+001  5.909552e+001
    endloop
  endfacet
  facet normal -5.108546e-007 -4.999997e-001  8.660255e-001
    outer loop
      vertex -2.500000e+001 -3.304475e+001  4.984552e+001
      vertex -1.500000e+001 -1.702328e+001  5.909552e+001
      vertex -1.606066e+001 -1.664280e+001  5.931519e+001
    endloop
  endfacet
  facet normal  8.821287e-007 -5.000003e-001  8.660253e-001
    outer loop
      vertex -2.500000e+001 -3.304475e+001  4.984552e+001
      vertex -1.606066e+001 -1.664280e+001  5.931519e+001
      vertex -1.650000e+001 -1.572424e+001  5.984552e+001
    endloop
  endfacet
  facet normal -1.382324e-007 -4.999999e-001  8.660254e-001
    outer loop
      vertex -2.500000e+001 -3.304475e+001  4.984552e+001
      vertex -1.650000e+001 -1.572424e+001  5.984552e+001
      vertex -2.500000e+001  1.596267e+000  6.984551e+001
    endloop
  endfacet
  facet normal -1.022138e-006 -5.000003e-001  8.660253e-001
    outer loop
      vertex -2.500000e+001  1.596267e+000  6.984551e+001
      vertex -1.650000e+001 -1.572424e+001  5.984552e+001
      vertex -1.606066e+001 -1.480568e+001  6.037585e+001
    endloop
  endfacet
  facet normal  4.678648e-007 -4.999996e-001  8.660256e-001
    outer loop
      vertex -2.500000e+001  1.596267e+000  6.984551e+001
      vertex -1.606066e+001 -1.480568e+001  6.037585e+001
      vertex -1.500000e+001 -1.442520e+001  6.059552e+001
    endloop
  endfacet
  facet normal -7.378151e-007 -5.000002e-001  8.660253e-001
    outer loop
      vertex -2.500000e+001  1.596267e+000  6.984551e+001
      vertex -1.500000e+001 -1.442520e+001  6.059552e+001
      vertex -1.393934e+001 -1.480568e+001  6.037585e+001
    endloop
  endfacet
  facet normal  3.582336e-008 -4.999998e-001  8.660255e-001
    outer loop
      vertex -2.500000e+001  1.596267e+000  6.984551e+001
      vertex -1.393934e+001 -1.480568e+001  6.037585e+001
      vertex  1.350000e+001 -1.572424e+001  5.984552e+001
    endloop
  endfacet
  facet normal -3.667012e-007 -5.000005e-001  8.660251e-001
    outer loop
      vertex -2.500000e+001  1.596267e+000  6.984551e+001
      vertex  1.350000e+001 -1.572424e+001  5.984552e+001
      vertex  1.393934e+001 -1.480568e+001  6.037585e+001
    endloop
  endfacet
  facet normal  3.020784e-007 -4.999993e-001  8.660257e-001
    outer loop
      vertex -2.500000e+001  1.596267e+000  6.984551e+001
      vertex  1.393934e+001 -1.480568e+001  6.037585e+001
      vertex  1.500000e+001 -1.442520e+001  6.059552e+001
    endloop
  endfacet
  facet normal -5.484741e-006 -5.000101e-001  8.660196e-001
    outer loop
      vertex -2.500000e+001  1.596267e+000  6.984551e+001
      vertex  1.500000e+001 -1.442520e+001  6.059552e+001
      vertex  1.606066e+001 -1.480568e+001  6.037585e+001
    endloop
  endfacet
  facet normal  0.000000e+000 -4.999999e-001  8.660255e-001
    outer loop
      vertex -2.500000e+001  1.596267e+000  6.984551e+001
      vertex  1.606066e+001 -1.480568e+001  6.037585e+001
      vertex  2.500000e+001  1.596267e+000  6.984551e+001
    endloop
  endfacet
  facet normal -3.826828e-001  8.001035e-001  4.619398e-001
    outer loop
      vertex -1.500000e+001 -1.552328e+001  5.649744e+001
      vertex -1.393934e+001 -1.664280e+001  5.931519e+001
      vertex -1.393934e+001 -1.514280e+001  5.671711e+001
    endloop
  endfacet
  facet normal -9.238796e-001  3.314136e-001  1.913416e-001
    outer loop
      vertex -1.393934e+001 -1.514280e+001  5.671711e+001
      vertex -1.393934e+001 -1.664280e+001  5.931519e+001
      vertex -1.350000e+001 -1.572424e+001  5.984552e+001
    endloop
  endfacet
  facet normal -9.238796e-001  3.314133e-001  1.913416e-001
    outer loop
      vertex -1.393934e+001 -1.514280e+001  5.671711e+001
      vertex -1.350000e+001 -1.572424e+001  5.984552e+001
      vertex -1.350000e+001 -1.422424e+001  5.724744e+001
    endloop
  endfacet
  facet normal -3.826834e-001  8.001031e-001  4.619398e-001
    outer loop
      vertex -1.393934e+001 -1.664280e+001  5.931519e+001
      vertex -1.500000e+001 -1.552328e+001  5.649744e+001
      vertex -1.500000e+001 -1.702328e+001  5.909552e+001
    endloop
  endfacet
  facet normal  3.826831e-001  8.001032e-001  4.619399e-001
    outer loop
      vertex -1.500000e+001 -1.702328e+001  5.909552e+001
      vertex -1.500000e+001 -1.552328e+001  5.649744e+001
      vertex -1.606066e+001 -1.514280e+001  5.671711e+001
    endloop
  endfacet
  facet normal  3.826837e-001  8.001032e-001  4.619395e-001
    outer loop
      vertex -1.500000e+001 -1.702328e+001  5.909552e+001
      vertex -1.606066e+001 -1.514280e+001  5.671711e+001
      vertex -1.606066e+001 -1.664280e+001  5.931519e+001
    endloop
  endfacet
  facet normal  9.238794e-001  3.314139e-001  1.913418e-001
    outer loop
      vertex -1.606066e+001 -1.664280e+001  5.931519e+001
      vertex -1.606066e+001 -1.514280e+001  5.671711e+001
      vertex -1.650000e+001 -1.422424e+001  5.724744e+001
    endloop
  endfacet
  facet normal  9.238792e-001  3.314141e-001  1.913420e-001
    outer loop
      vertex -1.606066e+001 -1.664280e+001  5.931519e+001
      vertex -1.650000e+001 -1.422424e+001  5.724744e+001
      vertex -1.650000e+001 -1.572424e+001  5.984552e+001
    endloop
  endfacet
  facet normal  3.826851e-001 -8.001028e-001 -4.619389e-001
    outer loop
      vertex -1.500000e+001 -1.292520e+001  5.799744e+001
      vertex -1.606066e+001 -1.480568e+001  6.037585e+001
      vertex -1.606066e+001 -1.330568e+001  5.777777e+001
    endloop
  endfacet
  facet normal  9.238793e-001 -3.314142e-001 -1.913418e-001
    outer loop
      vertex -1.606066e+001 -1.330568e+001  5.777777e+001
      vertex -1.606066e+001 -1.480568e+001  6.037585e+001
      vertex -1.650000e+001 -1.572424e+001  5.984552e+001
    endloop
  endfacet
  facet normal  9.238790e-001 -3.314146e-001 -1.913423e-001
    outer loop
      vertex -1.606066e+001 -1.330568e+001  5.777777e+001
      vertex -1.650000e+001 -1.572424e+001  5.984552e+001
      vertex -1.650000e+001 -1.422424e+001  5.724744e+001
    endloop
  endfacet
  facet normal  3.826837e-001 -8.001030e-001 -4.619398e-001
    outer loop
      vertex -1.606066e+001 -1.480568e+001  6.037585e+001
      vertex -1.500000e+001 -1.292520e+001  5.799744e+001
      vertex -1.500000e+001 -1.442520e+001  6.059552e+001
    endloop
  endfacet
  facet normal -3.826848e-001 -8.001027e-001 -4.619395e-001
    outer loop
      vertex -1.500000e+001 -1.442520e+001  6.059552e+001
      vertex -1.500000e+001 -1.292520e+001  5.799744e+001
      vertex -1.393934e+001 -1.330568e+001  5.777777e+001
    endloop
  endfacet
  facet normal -3.826834e-001 -8.001035e-001 -4.619393e-001
    outer loop
      vertex -1.500000e+001 -1.442520e+001  6.059552e+001
      vertex -1.393934e+001 -1.330568e+001  5.777777e+001
      vertex -1.393934e+001 -1.480568e+001  6.037585e+001
    endloop
  endfacet
  facet normal -9.238793e-001 -3.314141e-001 -1.913418e-001
    outer loop
      vertex -1.393934e+001 -1.480568e+001  6.037585e+001
      vertex -1.393934e+001 -1.330568e+001  5.777777e+001
      vertex -1.350000e+001 -1.422424e+001  5.724744e+001
    endloop
  endfacet
  facet normal -9.238795e-001 -3.314135e-001 -1.913417e-001
    outer loop
      vertex -1.393934e+001 -1.480568e+001  6.037585e+001
      vertex -1.350000e+001 -1.422424e+001  5.724744e+001
      vertex -1.350000e+001 -1.572424e+001  5.984552e+001
    endloop
  endfacet
  facet normal  3.826848e-001 -8.001029e-001 -4.619390e-001
    outer loop
      vertex  1.500000e+001 -1.292520e+001  5.799744e+001
      vertex  1.393934e+001 -1.480568e+001  6.037585e+001
      vertex  1.393934e+001 -1.330568e+001  5.777777e+001
    endloop
  endfacet
  facet normal  9.238795e-001 -3.314136e-001 -1.913415e-001
    outer loop
      vertex  1.393934e+001 -1.330568e+001  5.777777e+001
      vertex  1.393934e+001 -1.480568e+001  6.037585e+001
      vertex  1.350000e+001 -1.572424e+001  5.984552e+001
    endloop
  endfacet
  facet normal  9.238793e-001 -3.314140e-001 -1.913420e-001
    outer loop
      vertex  1.393934e+001 -1.330568e+001  5.777777e+001
      vertex  1.350000e+001 -1.572424e+001  5.984552e+001
      vertex  1.350000e+001 -1.422424e+001  5.724744e+001
    endloop
  endfacet
  facet normal  3.826834e-001 -8.001031e-001 -4.619398e-001
    outer loop
      vertex  1.393934e+001 -1.480568e+001  6.037585e+001
      vertex  1.500000e+001 -1.292520e+001  5.799744e+001
      vertex  1.500000e+001 -1.442520e+001  6.059552e+001
    endloop
  endfacet
  facet normal -3.826851e-001 -8.001025e-001 -4.619395e-001
    outer loop
      vertex  1.500000e+001 -1.442520e+001  6.059552e+001
      vertex  1.500000e+001 -1.292520e+001  5.799744e+001
      vertex  1.606066e+001 -1.330568e+001  5.777777e+001
    endloop
  endfacet
  facet normal -3.826837e-001 -8.001032e-001 -4.619392e-001
    outer loop
      vertex  1.500000e+001 -1.442520e+001  6.059552e+001
      vertex  1.606066e+001 -1.330568e+001  5.777777e+001
      vertex  1.606066e+001 -1.480568e+001  6.037585e+001
    endloop
  endfacet
  facet normal -9.238791e-001 -3.314147e-001 -1.913421e-001
    outer loop
      vertex  1.606066e+001 -1.480568e+001  6.037585e+001
      vertex  1.606066e+001 -1.330568e+001  5.777777e+001
      vertex  1.650000e+001 -1.422424e+001  5.724744e+001
    endloop
  endfacet
  facet normal -9.238792e-001 -3.314141e-001 -1.913420e-001
    outer loop
      vertex  1.606066e+001 -1.480568e+001  6.037585e+001
      vertex  1.650000e+001 -1.422424e+001  5.724744e+001
      vertex  1.650000e+001 -1.572424e+001  5.984552e+001
    endloop
  endfacet
  facet normal -3.826830e-001  8.001033e-001  4.619397e-001
    outer loop
      vertex  1.500000e+001 -1.552328e+001  5.649744e+001
      vertex  1.606066e+001 -1.664280e+001  5.931519e+001
      vertex  1.606066e+001 -1.514280e+001  5.671711e+001
    endloop
  endfacet
  facet normal -9.238793e-001  3.314141e-001  1.913420e-001
    outer loop
      vertex  1.606066e+001 -1.514280e+001  5.671711e+001
      vertex  1.606066e+001 -1.664280e+001  5.931519e+001
      vertex  1.650000e+001 -1.572424e+001  5.984552e+001
    endloop
  endfacet
  facet normal -9.238793e-001  3.314139e-001  1.913419e-001
    outer loop
      vertex  1.606066e+001 -1.514280e+001  5.671711e+001
      vertex  1.650000e+001 -1.572424e+001  5.984552e+001
      vertex  1.650000e+001 -1.422424e+001  5.724744e+001
    endloop
  endfacet
  facet normal -3.826837e-001  8.001030e-001  4.619398e-001
    outer loop
      vertex  1.606066e+001 -1.664280e+001  5.931519e+001
      vertex  1.500000e+001 -1.552328e+001  5.649744e+001
      vertex  1.500000e+001 -1.702328e+001  5.909552e+001
    endloop
  endfacet
  facet normal  3.826828e-001  8.001034e-001  4.619400e-001
    outer loop
      vertex  1.500000e+001 -1.702328e+001  5.909552e+001
      vertex  1.500000e+001 -1.552328e+001  5.649744e+001
      vertex  1.393934e+001 -1.514280e+001  5.671711e+001
    endloop
  endfacet
  facet normal  3.826834e-001  8.001033e-001  4.619396e-001
    outer loop
      vertex  1.500000e+001 -1.702328e+001  5.909552e+001
      vertex  1.393934e+001 -1.514280e+001  5.671711e+001
      vertex  1.393934e+001 -1.664280e+001  5.931519e+001
    endloop
  endfacet
  facet normal  9.238796e-001  3.314133e-001  1.913415e-001
    outer loop
      vertex  1.393934e+001 -1.664280e+001  5.931519e+001
      vertex  1.393934e+001 -1.514280e+001  5.671711e+001
      vertex  1.350000e+001 -1.422424e+001  5.724744e+001
    endloop
  endfacet
  facet normal  9.238795e-001  3.314135e-001  1.913417e-001
    outer loop
      vertex  1.393934e+001 -1.664280e+001  5.931519e+001
      vertex  1.350000e+001 -1.422424e+001  5.724744e+001
      vertex  1.350000e+001 -1.572424e+001  5.984552e+001
    endloop
  endfacet
  facet normal  1.000000e+000  0.000000e+000  0.000000e+000
    outer loop
      vertex  2.500000e+001  1.527707e+001  3.225781e+001
      vertex  2.500000e+001  2.038019e+000  5.986040e+001
      vertex  2.500000e+001  1.245799e+001  3.123175e+001
    endloop
  endfacet
  facet normal  1.000000e+000  -0.000000e+000  0.000000e+000
    outer loop
      vertex  2.500000e+001  1.596267e+000  6.984551e+001
      vertex  2.500000e+001 -3.304475e+001  4.984552e+001
      vertex  2.500000e+001 -3.154475e+001  4.724744e+001
    endloop
  endfacet
  facet normal  1.000000e+000  0.000000e+000  0.000000e+000
    outer loop
      vertex  2.500000e+001  1.596267e+000  6.984551e+001
      vertex  2.500000e+001 -3.154475e+001  4.724744e+001
      vertex  2.500000e+001 -5.160444e+000  6.248042e+001
    endloop
  endfacet
  facet normal  1.000000e+000  0.000000e+000  0.000000e+000
    outer loop
      vertex  2.500000e+001  1.596267e+000  6.984551e+001
      vertex  2.500000e+001 -5.160444e+000  6.248042e+001
      vertex  2.500000e+001 -3.096223e+000  6.313127e+001
    endloop
  endfacet
  facet normal  1.000000e+000  -0.000000e+000  0.000000e+000
    outer loop
      vertex  2.500000e+001  1.596267e+000  6.984551e+001
      vertex  2.500000e+001 -3.096223e+000  6.313127e+001
      vertex  2.500000e+001 -9.503437e-001  6.284876e+001
    endloop
  endfacet
  facet normal  9.999999e-001  -0.000000e+000  0.000000e+000
    outer loop
      vertex  2.500000e+001  1.596267e+000  6.984551e+001
      vertex  2.500000e+001 -9.503437e-001  6.284876e+001
      vertex  2.500000e+001  8.750895e-001  6.168583e+001
    endloop
  endfacet
  facet normal  9.999999e-001  -0.000000e+000  0.000000e+000
    outer loop
      vertex  2.500000e+001  1.596267e+000  6.984551e+001
      vertex  2.500000e+001  8.750895e-001  6.168583e+001
      vertex  2.500000e+001  2.038019e+000  5.986040e+001
    endloop
  endfacet
  facet normal  1.000000e+000  -0.000000e+000  -0.000000e+000
    outer loop
      vertex  2.500000e+001  1.596267e+000  6.984551e+001
      vertex  2.500000e+001  2.038019e+000  5.986040e+001
      vertex  2.500000e+001  1.527707e+001  3.225781e+001
    endloop
  endfacet
  facet normal -1.000000e+000  0.000000e+000  0.000000e+000
    outer loop
      vertex -2.500000e+001  1.245799e+001  3.123175e+001
      vertex -2.500000e+001  2.038019e+000  5.986040e+001
      vertex -2.500000e+001  1.527707e+001  3.225781e+001
    endloop
  endfacet
  facet normal -1.000000e+000  0.000000e+000  0.000000e+000
    outer loop
      vertex -2.500000e+001  1.596267e+000  6.984551e+001
      vertex -2.500000e+001  1.527707e+001  3.225781e+001
      vertex -2.500000e+001  2.038019e+000  5.986040e+001
    endloop
  endfacet
  facet normal -9.999999e-001  0.000000e+000  0.000000e+000
    outer loop
      vertex -2.500000e+001  1.596267e+000  6.984551e+001
      vertex -2.500000e+001  2.038019e+000  5.986040e+001
      vertex -2.500000e+001  8.750895e-001  6.168583e+001
    endloop
  endfacet
  facet normal -9.999999e-001  0.000000e+000  0.000000e+000
    outer loop
      vertex -2.500000e+001  1.596267e+000  6.984551e+001
      vertex -2.500000e+001  8.750895e-001  6.168583e+001
      vertex -2.500000e+001 -9.503437e-001  6.284876e+001
    endloop
  endfacet
  facet normal -1.000000e+000  0.000000e+000  0.000000e+000
    outer loop
      vertex -2.500000e+001  1.596267e+000  6.984551e+001
      vertex -2.500000e+001 -9.503437e-001  6.284876e+001
      vertex -2.500000e+001 -3.096223e+000  6.313127e+001
    endloop
  endfacet
  facet normal -1.000000e+000  -0.000000e+000  0.000000e+000
    outer loop
      vertex -2.500000e+001  1.596267e+000  6.984551e+001
      vertex -2.500000e+001 -3.096223e+000  6.313127e+001
      vertex -2.500000e+001 -5.160444e+000  6.248042e+001
    endloop
  endfacet
  facet normal -1.000000e+000  -0.000000e+000  0.000000e+000
    outer loop
      vertex -2.500000e+001  1.596267e+000  6.984551e+001
      vertex -2.500000e+001 -5.160444e+000  6.248042e+001
      vertex -2.500000e+001 -3.154475e+001  4.724744e+001
    endloop
  endfacet
  facet normal -1.000000e+000  0.000000e+000  0.000000e+000
    outer loop
      vertex -2.500000e+001  1.596267e+000  6.984551e+001
      vertex -2.500000e+001 -3.154475e+001  4.724744e+001
      vertex -2.500000e+001 -3.304475e+001  4.984552e+001
    endloop
  endfacet
  facet normal  -0.000000e+000 -8.660254e-001 -5.000001e-001
    outer loop
      vertex -2.500000e+001 -3.154475e+001  4.724744e+001
      vertex  2.500000e+001 -3.154475e+001  4.724744e+001
      vertex -2.500000e+001 -3.304475e+001  4.984552e+001
    endloop
  endfacet
  facet normal  0.000000e+000 -8.660254e-001 -5.000001e-001
    outer loop
      vertex -2.500000e+001 -3.304475e+001  4.984552e+001
      vertex  2.500000e+001 -3.154475e+001  4.724744e+001
      vertex  2.500000e+001 -3.304475e+001  4.984552e+001
    endloop
  endfacet
  facet normal  0.000000e+000  9.396926e-001  3.420202e-001
    outer loop
      vertex -2.500000e+001  1.527707e+001  3.225781e+001
      vertex -2.500000e+001  1.596267e+000  6.984551e+001
      vertex  2.500000e+001  1.527707e+001  3.225781e+001
    endloop
  endfacet
  facet normal  0.000000e+000  9.396926e-001  3.420202e-001
    outer loop
      vertex  2.500000e+001  1.527707e+001  3.225781e+001
      vertex -2.500000e+001  1.596267e+000  6.984551e+001
      vertex  2.500000e+001  1.596267e+000  6.984551e+001
    endloop
  endfacet
  facet normal  0.000000e+000  3.420195e-001 -9.396929e-001
    outer loop
      vertex -2.500000e+001  1.245799e+001  3.123175e+001
      vertex -2.500000e+001  1.527707e+001  3.225781e+001
      vertex  2.500000e+001  1.245799e+001  3.123175e+001
    endloop
  endfacet
  facet normal  0.000000e+000  3.420195e-001 -9.396929e-001
    outer loop
      vertex  2.500000e+001  1.245799e+001  3.123175e+001
      vertex -2.500000e+001  1.527707e+001  3.225781e+001
      vertex  2.500000e+001  1.527707e+001  3.225781e+001
    endloop
  endfacet
  facet normal  0.000000e+000 -9.396927e-001 -3.420202e-001
    outer loop
      vertex -2.500000e+001  2.038019e+000  5.986040e+001
      vertex -2.500000e+001  1.245799e+001  3.123175e+001
      vertex  2.500000e+001  2.038019e+000  5.986040e+001
    endloop
  endfacet
  facet normal  0.000000e+000 -9.396927e-001 -3.420202e-001
    outer loop
      vertex  2.500000e+001  2.038019e+000  5.986040e+001
      vertex -2.500000e+001  1.245799e+001  3.123175e+001
      vertex  2.500000e+001  1.245799e+001  3.123175e+001
    endloop
  endfacet
  facet normal  -0.000000e+000 -1.305272e-001 -9.914447e-001
    outer loop
      vertex -2.500000e+001 -9.503437e-001  6.284876e+001
      vertex  2.500000e+001 -3.096223e+000  6.313127e+001
      vertex -2.500000e+001 -3.096223e+000  6.313127e+001
    endloop
  endfacet
  facet normal  0.000000e+000  3.007066e-001 -9.537167e-001
    outer loop
      vertex -2.500000e+001 -3.096223e+000  6.313127e+001
      vertex  2.500000e+001 -3.096223e+000  6.313127e+001
      vertex  2.500000e+001 -5.160444e+000  6.248042e+001
    endloop
  endfacet
  facet normal  0.000000e+000  3.007066e-001 -9.537167e-001
    outer loop
      vertex -2.500000e+001 -3.096223e+000  6.313127e+001
      vertex  2.500000e+001 -5.160444e+000  6.248042e+001
      vertex -2.500000e+001 -5.160444e+000  6.248042e+001
    endloop
  endfacet
  facet normal  0.000000e+000 -1.305272e-001 -9.914447e-001
    outer loop
      vertex  2.500000e+001 -3.096223e+000  6.313127e+001
      vertex -2.500000e+001 -9.503437e-001  6.284876e+001
      vertex  2.500000e+001 -9.503437e-001  6.284876e+001
    endloop
  endfacet
  facet normal  -0.000000e+000 -5.372984e-001 -8.433922e-001
    outer loop
      vertex  2.500000e+001 -9.503437e-001  6.284876e+001
      vertex -2.500000e+001 -9.503437e-001  6.284876e+001
      vertex -2.500000e+001  8.750895e-001  6.168583e+001
    endloop
  endfacet
  facet normal  0.000000e+000 -5.372984e-001 -8.433922e-001
    outer loop
      vertex  2.500000e+001 -9.503437e-001  6.284876e+001
      vertex -2.500000e+001  8.750895e-001  6.168583e+001
      vertex  2.500000e+001  8.750895e-001  6.168583e+001
    endloop
  endfacet
  facet normal  -0.000000e+000 -8.433917e-001 -5.372991e-001
    outer loop
      vertex  2.500000e+001  8.750895e-001  6.168583e+001
      vertex -2.500000e+001  8.750895e-001  6.168583e+001
      vertex -2.500000e+001  2.038019e+000  5.986040e+001
    endloop
  endfacet
  facet normal  0.000000e+000 -8.433917e-001 -5.372991e-001
    outer loop
      vertex  2.500000e+001  8.750895e-001  6.168583e+001
      vertex -2.500000e+001  2.038019e+000  5.986040e+001
      vertex  2.500000e+001  2.038019e+000  5.986040e+001
    endloop
  endfacet
endsolid CATIA STL
